<svg width="280" height="124" viewBox="0 0 280 124" fill="none" xmlns="http://www.w3.org/2000/svg">
<g filter="url(#filter0_d_1282_99)">
<path d="M3.30162 13.9463C3.86695 0.00825977 15.3308 -11 29.2803 -11H250.133C264.122 -11 275.603 0.0681257 276.116 14.0475L279.012 93.0474C279.552 107.77 267.762 120 253.029 120H26.076C11.3032 120 -0.501384 107.707 0.0973182 92.9463L3.30162 13.9463Z" fill="url(#paint0_linear_1282_99)" shape-rendering="crispEdges"/>
<path d="M3.30162 13.9463C3.86695 0.00825977 15.3308 -11 29.2803 -11H250.133C264.122 -11 275.603 0.0681257 276.116 14.0475L279.012 93.0474C279.552 107.77 267.762 120 253.029 120H26.076C11.3032 120 -0.501384 107.707 0.0973182 92.9463L3.30162 13.9463Z" stroke="url(#paint1_linear_1282_99)" stroke-width="3" shape-rendering="crispEdges"/>
</g>
<defs>
<filter id="filter0_d_1282_99" x="-251.425" y="-258.5" width="781.954" height="634" filterUnits="userSpaceOnUse" color-interpolation-filters="sRGB">
<feFlood flood-opacity="0" result="BackgroundImageFix"/>
<feColorMatrix in="SourceAlpha" type="matrix" values="0 0 0 0 0 0 0 0 0 0 0 0 0 0 0 0 0 0 127 0" result="hardAlpha"/>
<feOffset dy="4"/>
<feGaussianBlur stdDeviation="125"/>
<feComposite in2="hardAlpha" operator="out"/>
<feColorMatrix type="matrix" values="0 0 0 0 0.0279375 0 0 0 0 0.0343551 0 0 0 0 0.075 0 0 0 1 0"/>
<feBlend mode="normal" in2="BackgroundImageFix" result="effect1_dropShadow_1282_99"/>
<feBlend mode="normal" in="SourceGraphic" in2="effect1_dropShadow_1282_99" result="shape"/>
</filter>
<linearGradient id="paint0_linear_1282_99" x1="139.5" y1="-11" x2="139.5" y2="120" gradientUnits="userSpaceOnUse">
<stop stop-color="#2B356F"/>
<stop offset="1" stop-color="#111634"/>
</linearGradient>
<linearGradient id="paint1_linear_1282_99" x1="139.5" y1="17.2104" x2="139.5" y2="120" gradientUnits="userSpaceOnUse">
<stop offset="0.413592" stop-color="#1F2753" stop-opacity="0"/>
<stop offset="1" stop-color="#394796"/>
</linearGradient>
</defs>
</svg>
