<svg width="229" height="110" viewBox="0 0 229 110" fill="none" xmlns="http://www.w3.org/2000/svg">
<g filter="url(#filter0_d_1107_694)">
<path d="M14.864 18.5717H37.0241C42.778 18.5717 47.858 19.738 52.2641 22.0706C56.6702 24.3514 60.0914 27.5653 62.5277 31.7122C64.964 35.8073 66.1822 40.4985 66.1822 45.7858C66.1822 51.0732 64.964 55.7903 62.5277 59.9372C60.0914 64.0323 56.6702 67.2461 52.2641 69.5788C47.858 71.8596 42.778 73 37.0241 73H14.864L14.864 18.5717ZM36.7131 68.0237C41.4821 68.0237 45.6549 67.0906 49.2316 65.2245C52.8084 63.3066 55.5816 60.6888 57.5514 57.3713C59.5212 54.0019 60.5061 50.1401 60.5061 45.7858C60.5061 41.4316 59.5212 37.5957 57.5514 34.2781C55.5816 30.9088 52.8084 28.291 49.2316 26.4249C45.6549 24.5069 41.4821 23.548 36.7131 23.548H20.6179V68.0237H36.7131ZM82.213 18.5717H87.9669V73H82.213V18.5717ZM154.273 18.5717V73H149.53L114.54 28.8353V73H108.786V18.5717H113.529L148.597 62.7364V18.5717H154.273ZM213.637 68.0237V73H175.148V18.5717H212.47V23.548H180.902V42.9089H209.049V47.8075H180.902V68.0237H213.637Z" fill="url(#paint0_linear_1107_694)"/>
<path d="M14.864 18.5717V17.28H13.5724V18.5717H14.864ZM52.2641 22.0706L51.6597 23.2122L51.6703 23.2177L52.2641 22.0706ZM62.5277 31.7122L61.414 32.3665L61.4177 32.3726L62.5277 31.7122ZM62.5277 59.9372L63.6378 60.5976L63.6414 60.5915L62.5277 59.9372ZM52.2641 69.5788L52.8579 70.7259L52.8684 70.7203L52.2641 69.5788ZM14.864 73H13.5724V74.2917H14.864V73ZM49.2316 65.2245L49.8291 66.3697L49.8356 66.3663L49.8421 66.3628L49.2316 65.2245ZM57.5514 57.3713L58.6621 58.0308L58.6665 58.0232L57.5514 57.3713ZM57.5514 34.2781L56.4363 34.93L56.4408 34.9376L57.5514 34.2781ZM49.2316 26.4249L48.6212 27.5632L48.6277 27.5667L48.6342 27.5701L49.2316 26.4249ZM20.6179 23.548V22.2563H19.3262V23.548H20.6179ZM20.6179 68.0237H19.3262V69.3154H20.6179V68.0237ZM14.864 19.8633H37.0241V17.28H14.864V19.8633ZM37.0241 19.8633C42.6 19.8633 47.4667 20.9923 51.6597 23.2122L52.8684 20.9291C48.2493 18.4836 42.956 17.28 37.0241 17.28V19.8633ZM51.6703 23.2177C55.8673 25.3903 59.1051 28.4365 61.414 32.3665L63.6414 31.0579C61.0777 26.6941 57.4731 23.3126 52.8579 20.9236L51.6703 23.2177ZM61.4177 32.3726C63.7224 36.2466 64.8905 40.7048 64.8905 45.7858H67.4738C67.4738 40.2922 66.2057 35.368 63.6378 31.0518L61.4177 32.3726ZM64.8905 45.7858C64.8905 50.8666 63.7225 55.3537 61.414 59.2829L63.6414 60.5915C66.2056 56.2269 67.4738 51.2797 67.4738 45.7858H64.8905ZM61.4177 59.2768C59.1083 63.1585 55.8664 66.2102 51.6597 68.4372L52.8684 70.7203C57.4739 68.2821 61.0745 64.9061 63.6378 60.5976L61.4177 59.2768ZM51.6703 68.4317C47.475 70.6034 42.6045 71.7083 37.0241 71.7083V74.2917C42.9516 74.2917 48.241 73.1158 52.8579 70.7259L51.6703 68.4317ZM37.0241 71.7083H14.864V74.2917H37.0241V71.7083ZM16.1557 73V18.5717H13.5724V73H16.1557ZM36.7131 69.3154C41.6523 69.3154 46.0371 68.3481 49.8291 66.3697L48.6342 64.0794C45.2727 65.8332 41.3118 66.732 36.7131 66.732V69.3154ZM49.8421 66.3628C53.6148 64.3398 56.5659 61.5611 58.662 58.0307L56.4408 56.7119C54.5974 59.8165 52.002 62.2733 48.6212 64.0862L49.8421 66.3628ZM58.6665 58.0232C60.7649 54.4338 61.7977 50.3421 61.7977 45.7858H59.2144C59.2144 49.9381 58.2775 53.57 56.4363 56.7194L58.6665 58.0232ZM61.7977 45.7858C61.7977 41.23 60.765 37.1605 58.662 33.6187L56.4408 34.9376C58.2774 38.0309 59.2144 41.6332 59.2144 45.7858H61.7977ZM58.6665 33.6262C56.5697 30.0397 53.6137 27.2543 49.8291 25.2797L48.6342 27.5701C52.003 29.3277 54.5935 31.7778 56.4363 34.93L58.6665 33.6262ZM49.8421 25.2866C46.0473 23.2517 41.6577 22.2563 36.7131 22.2563V24.8396C41.3064 24.8396 45.2626 25.7622 48.6212 27.5632L49.8421 25.2866ZM36.7131 22.2563H20.6179V24.8396H36.7131V22.2563ZM19.3262 23.548V68.0237H21.9095V23.548H19.3262ZM20.6179 69.3154H36.7131V66.732H20.6179V69.3154ZM82.213 18.5717V17.28H80.9214V18.5717H82.213ZM87.9669 18.5717H89.2585V17.28H87.9669V18.5717ZM87.9669 73V74.2917H89.2585V73H87.9669ZM82.213 73H80.9214V74.2917H82.213V73ZM82.213 19.8633H87.9669V17.28H82.213V19.8633ZM86.6752 18.5717V73H89.2585V18.5717H86.6752ZM87.9669 71.7083H82.213V74.2917H87.9669V71.7083ZM83.5047 73V18.5717H80.9214V73H83.5047ZM154.273 18.5717H155.565V17.28H154.273V18.5717ZM154.273 73V74.2917H155.565V73H154.273ZM149.53 73L148.517 73.8021L148.905 74.2917H149.53V73ZM114.54 28.8353L115.553 28.0332L113.249 25.1249V28.8353H114.54ZM114.54 73V74.2917H115.832V73H114.54ZM108.786 73H107.495V74.2917H108.786V73ZM108.786 18.5717V17.28H107.495V18.5717H108.786ZM113.529 18.5717L114.541 17.7685L114.153 17.28H113.529V18.5717ZM148.597 62.7364L147.585 63.5396L149.888 66.4403V62.7364H148.597ZM148.597 18.5717V17.28H147.305V18.5717H148.597ZM152.981 18.5717V73H155.565V18.5717H152.981ZM154.273 71.7083H149.53V74.2917H154.273V71.7083ZM150.542 72.1979L115.553 28.0332L113.528 29.6374L148.517 73.8021L150.542 72.1979ZM113.249 28.8353V73H115.832V28.8353H113.249ZM114.54 71.7083H108.786V74.2917H114.54V71.7083ZM110.078 73V18.5717H107.495V73H110.078ZM108.786 19.8633H113.529V17.28H108.786V19.8633ZM112.518 19.3749L147.585 63.5396L149.608 61.9332L114.541 17.7685L112.518 19.3749ZM149.888 62.7364V18.5717H147.305V62.7364H149.888ZM148.597 19.8633H154.273V17.28H148.597V19.8633ZM213.637 68.0237H214.928V66.732H213.637V68.0237ZM213.637 73V74.2917H214.928V73H213.637ZM175.148 73H173.857V74.2917H175.148V73ZM175.148 18.5717V17.28H173.857V18.5717H175.148ZM212.47 18.5717H213.762V17.28H212.47V18.5717ZM212.47 23.548V24.8396H213.762V23.548H212.47ZM180.902 23.548V22.2563H179.61V23.548H180.902ZM180.902 42.9089H179.61V44.2006H180.902V42.9089ZM209.049 42.9089H210.341V41.6173H209.049V42.9089ZM209.049 47.8075V49.0991H210.341V47.8075H209.049ZM180.902 47.8075V46.5158H179.61V47.8075H180.902ZM180.902 68.0237H179.61V69.3154H180.902V68.0237ZM212.345 68.0237V73H214.928V68.0237H212.345ZM213.637 71.7083H175.148V74.2917H213.637V71.7083ZM176.44 73V18.5717H173.857V73H176.44ZM175.148 19.8633H212.47V17.28H175.148V19.8633ZM211.179 18.5717V23.548H213.762V18.5717H211.179ZM212.47 22.2563H180.902V24.8396H212.47V22.2563ZM179.61 23.548V42.9089H182.194V23.548H179.61ZM180.902 44.2006H209.049V41.6173H180.902V44.2006ZM207.758 42.9089V47.8075H210.341V42.9089H207.758ZM209.049 46.5158H180.902V49.0991H209.049V46.5158ZM179.61 47.8075V68.0237H182.194V47.8075H179.61ZM180.902 69.3154H213.637V66.732H180.902V69.3154Z" fill="url(#paint1_linear_1107_694)"/>
</g>
<g filter="url(#filter1_d_1107_694)">
<path d="M86.1846 92.0781C86.5945 92.0781 86.9097 92.2673 87.1304 92.6456C87.3826 93.0239 87.5087 93.5441 87.5087 94.2061C87.5087 95.4356 87.2092 96.4129 86.6102 97.138C84.8448 99.2503 83.1266 100.732 81.4557 101.583C79.8164 102.434 77.8302 102.86 75.4973 102.86C73.858 102.86 72.3447 102.655 70.9576 102.245C69.5704 101.835 67.8838 101.221 65.8977 100.401C64.1953 99.6759 62.682 99.0926 61.3579 98.6513C59.9077 100.228 58.5994 101.331 57.4329 101.961C56.2665 102.56 55.037 102.86 53.7444 102.86C52.0105 102.86 50.6233 102.466 49.583 101.678C48.5426 100.858 48.0224 99.802 48.0224 98.5094C48.0224 97.5321 48.3377 96.6336 48.9682 95.8139C49.6303 94.9943 50.5445 94.348 51.711 93.8751C52.8774 93.4022 54.2331 93.1657 55.7778 93.1657C56.6606 93.1657 57.3226 93.1815 57.764 93.213C63.9431 85.5207 69.5231 77.4028 74.5042 68.8592C71.793 68.3863 69.0345 68.1499 66.2287 68.1499C62.6032 68.1499 59.9393 68.5755 58.2369 69.4267C56.566 70.2464 55.7305 71.5547 55.7305 73.3517C55.7305 73.8876 55.7936 74.3448 55.9197 74.7231C56.0458 75.1014 56.235 75.5427 56.4872 76.0472C56.7709 76.6146 56.9128 77.0245 56.9128 77.2767C56.9128 77.9072 56.6133 78.4431 56.0143 78.8845C55.4468 79.2943 54.7848 79.4992 54.0281 79.4992C53.24 79.4992 52.5937 79.2628 52.0893 78.7899C51.4903 78.254 51.0016 77.5289 50.6233 76.6146C50.2766 75.6688 50.1032 74.6127 50.1032 73.4463C50.1032 69.7577 51.6322 67.0307 54.6902 65.2653C57.7482 63.4998 61.7835 62.6171 66.7962 62.6171C69.2867 62.6171 71.8245 62.759 74.4097 63.0427C77.0263 63.3264 79.4696 63.7836 81.7395 64.4141C82.6852 64.6663 83.3158 65.0288 83.631 65.5017C83.9463 65.9431 84.1039 66.5263 84.1039 67.2514C84.1039 68.1026 83.8832 68.7647 83.4419 69.2375C83.0005 69.7104 82.3857 69.9469 81.5976 69.9469H81.2666C77.8618 75.4954 74.4097 80.8233 70.9103 85.9305C68.1045 89.9974 66.1341 92.7559 64.9992 94.2061C66.8277 94.6159 68.4197 94.9943 69.7754 95.341C71.4462 95.7824 72.7861 96.1134 73.7949 96.3341C74.8353 96.5233 75.7338 96.6178 76.4904 96.6178C78.3189 96.6178 79.8794 96.3183 81.172 95.7194C82.4961 95.0888 83.7414 94.0958 84.9078 92.7401C85.2861 92.2988 85.7117 92.0781 86.1846 92.0781ZM109.653 88.1058C110.063 88.1058 110.378 88.3108 110.599 88.7206C110.819 89.1304 110.93 89.6506 110.93 90.2811C110.93 91.7944 110.473 92.6929 109.558 92.9766C107.667 93.6386 105.586 94.0169 103.316 94.1115C102.717 96.7597 101.535 98.8877 99.7695 100.496C98.004 102.072 96.0021 102.86 93.7638 102.86C91.8722 102.86 90.2486 102.403 88.893 101.489C87.5689 100.574 86.5601 99.3606 85.8665 97.8474C85.1729 96.3341 84.8262 94.6948 84.8262 92.9293C84.8262 90.5333 85.2833 88.4053 86.1975 86.5453C87.1118 84.6537 88.3728 83.1878 89.9807 82.1474C91.5885 81.0755 93.3697 80.5396 95.3243 80.5396C97.7203 80.5396 99.6434 81.375 101.094 83.0459C102.575 84.6853 103.442 86.7187 103.694 89.1462C105.176 89.0516 106.942 88.7364 108.991 88.2004C109.243 88.1374 109.464 88.1058 109.653 88.1058ZM94.1421 97.8474C95.1509 97.8474 96.0179 97.4375 96.743 96.6178C97.4996 95.7982 98.004 94.6159 98.2562 93.0712C97.2789 92.4091 96.5223 91.5422 95.9864 90.4703C95.4819 89.3984 95.2297 88.2635 95.2297 87.0655C95.2297 86.5611 95.277 86.0566 95.3716 85.5522H95.1352C93.8741 85.5522 92.818 86.167 91.9668 87.3965C91.1471 88.5945 90.7373 90.2969 90.7373 92.5037C90.7373 94.2376 91.0683 95.5617 91.7303 96.476C92.4239 97.3902 93.2278 97.8474 94.1421 97.8474ZM109.283 102.86C108.085 102.86 107.233 102.229 106.729 100.968C106.256 99.7074 106.02 97.6897 106.02 94.9154C106.02 90.8171 106.603 86.9236 107.769 83.2351C108.053 82.3208 108.51 81.6588 109.141 81.2489C109.803 80.8076 110.717 80.5869 111.884 80.5869C112.514 80.5869 112.955 80.6657 113.208 80.8233C113.46 80.981 113.586 81.2805 113.586 81.7218C113.586 82.2262 113.35 83.3612 112.877 85.1266C112.561 86.3877 112.309 87.4911 112.12 88.4369C111.931 89.3826 111.773 90.5491 111.647 91.9362C112.687 89.225 113.854 87.0182 115.146 85.3158C116.439 83.6134 117.7 82.3996 118.93 81.6745C120.191 80.9494 121.341 80.5869 122.382 80.5869C124.431 80.5869 125.455 81.6115 125.455 83.6607C125.455 84.8902 125.109 87.1128 124.415 90.3284C123.816 93.0712 123.517 94.8839 123.517 95.7666C123.517 97.0277 123.974 97.6582 124.888 97.6582C125.519 97.6582 126.259 97.2799 127.111 96.5233C127.993 95.7351 129.16 94.4741 130.61 92.7401C130.988 92.2988 131.414 92.0781 131.887 92.0781C132.297 92.0781 132.612 92.2673 132.833 92.6456C133.085 93.0239 133.211 93.5441 133.211 94.2061C133.211 95.4671 132.911 96.4444 132.312 97.138C130.957 98.8089 129.491 100.18 127.915 101.252C126.37 102.324 124.604 102.86 122.618 102.86C121.01 102.86 119.797 102.403 118.977 101.489C118.157 100.543 117.747 99.1872 117.747 97.4218C117.747 96.539 117.968 94.9627 118.409 92.6929C118.819 90.7067 119.024 89.3353 119.024 88.5787C119.024 88.0743 118.851 87.8221 118.504 87.8221C118.094 87.8221 117.511 88.358 116.754 89.4299C116.029 90.4703 115.273 91.8574 114.484 93.5913C113.728 95.3253 113.113 97.1538 112.64 99.0769C112.293 100.559 111.884 101.567 111.411 102.103C110.969 102.608 110.26 102.86 109.283 102.86ZM145.369 93.4968C145.778 93.4968 146.094 93.6859 146.314 94.0642C146.567 94.4425 146.693 94.9627 146.693 95.6248C146.693 96.7597 146.425 97.737 145.889 98.5567C145.006 99.9123 143.84 100.968 142.389 101.725C140.971 102.482 139.268 102.86 137.282 102.86C134.256 102.86 131.907 101.961 130.236 100.165C128.565 98.336 127.73 95.877 127.73 92.7874C127.73 90.6121 128.187 88.5945 129.101 86.7345C130.015 84.8429 131.276 83.3454 132.884 82.242C134.524 81.1386 136.368 80.5869 138.417 80.5869C140.246 80.5869 141.712 81.1386 142.815 82.242C143.918 83.3139 144.47 84.7798 144.47 86.6399C144.47 88.8152 143.682 90.691 142.106 92.2673C140.561 93.812 137.913 95.0415 134.161 95.9558C134.918 97.406 136.195 98.1311 137.991 98.1311C139.284 98.1311 140.34 97.8316 141.16 97.2326C142.011 96.6336 142.988 95.6248 144.092 94.2061C144.47 93.7332 144.896 93.4968 145.369 93.4968ZM137.613 85.2212C136.447 85.2212 135.454 85.899 134.634 87.2546C133.846 88.6102 133.452 90.2496 133.452 92.1727V92.2673C135.312 91.8259 136.778 91.1639 137.85 90.2811C138.922 89.3984 139.457 88.3738 139.457 87.2073C139.457 86.6083 139.284 86.1355 138.937 85.7887C138.622 85.4104 138.181 85.2212 137.613 85.2212Z" fill="#ED1F98"/>
</g>
<defs>
<filter id="filter0_d_1107_694" x="0.00998878" y="3.71763" width="228.481" height="84.1364" filterUnits="userSpaceOnUse" color-interpolation-filters="sRGB">
<feFlood flood-opacity="0" result="BackgroundImageFix"/>
<feColorMatrix in="SourceAlpha" type="matrix" values="0 0 0 0 0 0 0 0 0 0 0 0 0 0 0 0 0 0 127 0" result="hardAlpha"/>
<feOffset/>
<feGaussianBlur stdDeviation="7.42701"/>
<feComposite in2="hardAlpha" operator="out"/>
<feColorMatrix type="matrix" values="0 0 0 0 0.894118 0 0 0 0 0.756863 0 0 0 0 0.447059 0 0 0 0.23 0"/>
<feBlend mode="normal" in2="BackgroundImageFix" result="effect1_dropShadow_1107_694"/>
<feBlend mode="normal" in="SourceGraphic" in2="effect1_dropShadow_1107_694" result="shape"/>
</filter>
<filter id="filter1_d_1107_694" x="41.4546" y="56.0492" width="111.806" height="53.3787" filterUnits="userSpaceOnUse" color-interpolation-filters="sRGB">
<feFlood flood-opacity="0" result="BackgroundImageFix"/>
<feColorMatrix in="SourceAlpha" type="matrix" values="0 0 0 0 0 0 0 0 0 0 0 0 0 0 0 0 0 0 127 0" result="hardAlpha"/>
<feOffset/>
<feGaussianBlur stdDeviation="3.28395"/>
<feComposite in2="hardAlpha" operator="out"/>
<feColorMatrix type="matrix" values="0 0 0 0 0.85098 0 0 0 0 0.00784314 0 0 0 0 0.501961 0 0 0 1 0"/>
<feBlend mode="normal" in2="BackgroundImageFix" result="effect1_dropShadow_1107_694"/>
<feBlend mode="normal" in="SourceGraphic" in2="effect1_dropShadow_1107_694" result="shape"/>
</filter>
<linearGradient id="paint0_linear_1107_694" x1="112.5" y1="14.4643" x2="112.5" y2="69.4286" gradientUnits="userSpaceOnUse">
<stop stop-color="#FAFFF3"/>
<stop offset="0.270481" stop-color="#E8C473"/>
<stop offset="0.435804" stop-color="#D9B568"/>
<stop offset="0.476216" stop-color="#C49013"/>
<stop offset="0.626842" stop-color="#E6D76D"/>
<stop offset="0.814873" stop-color="white"/>
<stop offset="1" stop-color="#DBB554"/>
</linearGradient>
<linearGradient id="paint1_linear_1107_694" x1="105.268" y1="11.25" x2="108.799" y2="69.2419" gradientUnits="userSpaceOnUse">
<stop stop-color="#755F22"/>
<stop offset="0.519449" stop-color="white"/>
<stop offset="1" stop-color="#77632A"/>
</linearGradient>
</defs>
</svg>
