<svg width="309" height="43" viewBox="0 0 309 43" fill="none" xmlns="http://www.w3.org/2000/svg">
<g filter="url(#filter0_d_1107_199)">
<path d="M5.096 31V5.8H20.324V7.888H7.4V17.32H19.316V19.408H7.4V28.912H20.468V31H5.096ZM23.0018 31L31.4258 18.292L23.1458 5.8H25.9178L32.9018 16.708H33.3338L40.3538 5.8H43.1258L34.8458 18.292L43.2698 31H40.4978L33.3338 19.876H32.9018L25.7738 31H23.0018ZM46.9333 31V5.8H56.2573C57.7453 5.8 59.0773 6.088 60.2533 6.664C61.4533 7.216 62.4013 8.02 63.0973 9.076C63.7933 10.132 64.1413 11.416 64.1413 12.928V13.36C64.1413 14.872 63.7813 16.168 63.0613 17.248C62.3653 18.304 61.4173 19.108 60.2173 19.66C59.0413 20.212 57.7213 20.488 56.2573 20.488H49.2373V31H46.9333ZM49.2373 18.4H56.0053C57.8053 18.4 59.2213 17.956 60.2533 17.068C61.3093 16.18 61.8373 14.932 61.8373 13.324V12.964C61.8373 11.332 61.3213 10.084 60.2893 9.22C59.2813 8.332 57.8533 7.888 56.0053 7.888H49.2373V18.4ZM67.7993 31V5.8H83.0273V7.888H70.1033V17.32H82.0193V19.408H70.1033V28.912H83.1713V31H67.7993ZM87.5051 31V5.8H97.3691C98.9291 5.8 100.297 6.064 101.473 6.592C102.673 7.12 103.609 7.888 104.281 8.896C104.977 9.88 105.325 11.08 105.325 12.496V12.856C105.325 14.56 104.917 15.904 104.101 16.888C103.285 17.848 102.325 18.484 101.221 18.796V19.228C102.061 19.252 102.769 19.516 103.345 20.02C103.921 20.524 104.209 21.328 104.209 22.432V31H101.905V22.684C101.905 21.916 101.689 21.328 101.257 20.92C100.849 20.512 100.225 20.308 99.3851 20.308H89.8091V31H87.5051ZM89.8091 18.22H97.1531C99.0251 18.22 100.465 17.788 101.473 16.924C102.505 16.036 103.021 14.776 103.021 13.144V12.964C103.021 11.332 102.517 10.084 101.509 9.22C100.525 8.332 99.0731 7.888 97.1531 7.888H89.8091V18.22ZM109.496 31V5.8H111.8V31H109.496ZM117.284 31V5.8H132.512V7.888H119.588V17.32L131.504 17.32V19.408L119.588 19.408V28.912L132.656 28.912V31H117.284ZM136.99 31V5.8H141.562L151.858 29.632H152.29V5.8H154.594V31H150.022L139.726 7.132H139.294V31H136.99ZM168.998 31.504C166.046 31.504 163.682 30.64 161.906 28.912C160.154 27.16 159.278 24.604 159.278 21.244V15.556C159.278 12.196 160.154 9.652 161.906 7.924C163.682 6.172 166.046 5.296 168.998 5.296C171.926 5.296 174.158 6.124 175.694 7.78C177.254 9.412 178.034 11.644 178.034 14.476V14.656H175.73V14.404C175.73 12.34 175.178 10.66 174.074 9.364C172.994 8.044 171.302 7.384 168.998 7.384C166.67 7.384 164.846 8.092 163.526 9.508C162.23 10.924 161.582 12.916 161.582 15.484V21.316C161.582 23.884 162.23 25.876 163.526 27.292C164.846 28.708 166.67 29.416 168.998 29.416C171.302 29.416 172.994 28.768 174.074 27.472C175.178 26.152 175.73 24.46 175.73 22.396V21.856H178.034V22.324C178.034 25.156 177.254 27.4 175.694 29.056C174.158 30.688 171.926 31.504 168.998 31.504ZM182.413 31V5.8H197.641V7.888L184.717 7.888V17.32H196.633V19.408H184.717V28.912H197.785V31H182.413Z" fill="white"/>
<path d="M219.717 31.504C216.549 31.504 214.029 30.64 212.157 28.912C210.285 27.16 209.349 24.664 209.349 21.424V15.376C209.349 12.136 210.285 9.652 212.157 7.924C214.029 6.172 216.549 5.296 219.717 5.296C222.885 5.296 225.405 6.172 227.277 7.924C229.149 9.652 230.085 12.136 230.085 15.376V21.424C230.085 24.664 229.149 27.16 227.277 28.912C225.405 30.64 222.885 31.504 219.717 31.504ZM219.717 27.256C221.493 27.256 222.873 26.74 223.857 25.708C224.841 24.676 225.333 23.296 225.333 21.568V15.232C225.333 13.504 224.841 12.124 223.857 11.092C222.873 10.06 221.493 9.544 219.717 9.544C217.965 9.544 216.585 10.06 215.577 11.092C214.593 12.124 214.101 13.504 214.101 15.232V21.568C214.101 23.296 214.593 24.676 215.577 25.708C216.585 26.74 217.965 27.256 219.717 27.256ZM221.373 37.48C220.197 37.48 219.237 37.108 218.493 36.364C217.773 35.644 217.413 34.672 217.413 33.448V31H222.021V32.728C222.021 33.448 222.357 33.808 223.029 33.808H225.153V37.48H221.373ZM233.533 31V5.8H244.477C246.061 5.8 247.441 6.076 248.617 6.628C249.793 7.18 250.705 7.96 251.353 8.968C252.001 9.976 252.325 11.164 252.325 12.532V12.964C252.325 14.476 251.965 15.7 251.245 16.636C250.525 17.572 249.637 18.256 248.581 18.688V19.336C249.541 19.384 250.285 19.72 250.813 20.344C251.341 20.944 251.605 21.748 251.605 22.756V31H246.853V23.44C246.853 22.864 246.697 22.396 246.385 22.036C246.097 21.676 245.605 21.496 244.909 21.496H238.285V31H233.533ZM238.285 17.176H243.973C245.101 17.176 245.977 16.876 246.601 16.276C247.249 15.652 247.573 14.836 247.573 13.828V13.468C247.573 12.46 247.261 11.656 246.637 11.056C246.013 10.432 245.125 10.12 243.973 10.12H238.285V17.176ZM255.559 31V5.8H271.759V10.12H260.311V16.132H270.751V20.452H260.311V26.68H271.975V31L255.559 31ZM276.789 31L273.477 5.8H278.193L280.641 27.688H281.289L284.457 5.8L292.665 5.8L295.833 27.688H296.481L298.929 5.8H303.645L300.333 31H292.125L288.885 8.608H288.237L284.997 31H276.789Z" fill="#ED1F98"/>
</g>
<defs>
<filter id="filter0_d_1107_199" x="0.095993" y="0.29599" width="308.549" height="42.184" filterUnits="userSpaceOnUse" color-interpolation-filters="sRGB">
<feFlood flood-opacity="0" result="BackgroundImageFix"/>
<feColorMatrix in="SourceAlpha" type="matrix" values="0 0 0 0 0 0 0 0 0 0 0 0 0 0 0 0 0 0 127 0" result="hardAlpha"/>
<feOffset/>
<feGaussianBlur stdDeviation="2.5"/>
<feComposite in2="hardAlpha" operator="out"/>
<feColorMatrix type="matrix" values="0 0 0 0 0.85098 0 0 0 0 0.00784314 0 0 0 0 0.501961 0 0 0 1 0"/>
<feBlend mode="normal" in2="BackgroundImageFix" result="effect1_dropShadow_1107_199"/>
<feBlend mode="normal" in="SourceGraphic" in2="effect1_dropShadow_1107_199" result="shape"/>
</filter>
</defs>
</svg>
