<svg width="231" height="37" viewBox="0 0 231 37" fill="none" xmlns="http://www.w3.org/2000/svg">
<g filter="url(#filter0_d_1107_216)">
<path d="M14.988 31.504C12.036 31.504 9.684 30.64 7.932 28.912C6.18 27.16 5.304 24.604 5.304 21.244V15.556C5.304 12.196 6.18 9.652 7.932 7.924C9.684 6.172 12.036 5.296 14.988 5.296C17.94 5.296 20.292 6.172 22.044 7.924C23.796 9.652 24.672 12.196 24.672 15.556V21.244C24.672 24.604 23.796 27.16 22.044 28.912C20.292 30.64 17.94 31.504 14.988 31.504ZM14.988 29.416C17.34 29.416 19.152 28.708 20.424 27.292C21.72 25.876 22.368 23.884 22.368 21.316V15.484C22.368 12.916 21.72 10.924 20.424 9.508C19.152 8.092 17.34 7.384 14.988 7.384C12.66 7.384 10.848 8.092 9.552 9.508C8.256 10.924 7.608 12.916 7.608 15.484V21.316C7.608 23.884 8.256 25.876 9.552 27.292C10.848 28.708 12.66 29.416 14.988 29.416ZM38.2086 31.504C36.4086 31.504 34.8246 31.192 33.4566 30.568C32.1126 29.92 31.0566 28.948 30.2886 27.652C29.5206 26.356 29.1366 24.724 29.1366 22.756V5.8H31.4406V22.756C31.4406 25.012 32.0286 26.692 33.2046 27.796C34.4046 28.876 36.0726 29.416 38.2086 29.416C40.3446 29.416 42.0006 28.876 43.1766 27.796C44.3766 26.692 44.9766 25.012 44.9766 22.756V5.8H47.2806V22.756C47.2806 24.724 46.8966 26.356 46.1286 27.652C45.3846 28.948 44.3286 29.92 42.9606 30.568C41.5926 31.192 40.0086 31.504 38.2086 31.504ZM52.5388 31V5.8H62.4028C63.9628 5.8 65.3308 6.064 66.5068 6.592C67.7068 7.12 68.6428 7.888 69.3148 8.896C70.0108 9.88 70.3588 11.08 70.3588 12.496V12.856C70.3588 14.56 69.9508 15.904 69.1348 16.888C68.3188 17.848 67.3588 18.484 66.2548 18.796V19.228C67.0948 19.252 67.8028 19.516 68.3788 20.02C68.9548 20.524 69.2428 21.328 69.2428 22.432V31H66.9388V22.684C66.9388 21.916 66.7228 21.328 66.2908 20.92C65.8828 20.512 65.2588 20.308 64.4188 20.308H54.8428V31H52.5388ZM54.8428 18.22H62.1868C64.0588 18.22 65.4988 17.788 66.5068 16.924C67.5388 16.036 68.0548 14.776 68.0548 13.144V12.964C68.0548 11.332 67.5508 10.084 66.5428 9.22C65.5588 8.332 64.1068 7.888 62.1868 7.888H54.8428V18.22Z" fill="white"/>
<path d="M91.0478 31.504C89.3198 31.504 87.7478 31.12 86.3318 30.352C84.9398 29.56 83.8238 28.42 82.9838 26.932C82.1678 25.42 81.7598 23.584 81.7598 21.424V15.376C81.7598 12.136 82.6718 9.652 84.4958 7.924C86.3198 6.172 88.7918 5.296 91.9118 5.296C95.0078 5.296 97.3958 6.124 99.0758 7.78C100.78 9.412 101.632 11.632 101.632 14.44V14.584H96.9518V14.296C96.9518 13.408 96.7598 12.604 96.3758 11.884C96.0158 11.164 95.4638 10.6 94.7198 10.192C93.9758 9.76 93.0398 9.544 91.9118 9.544C90.2318 9.544 88.9118 10.06 87.9518 11.092C86.9918 12.124 86.5118 13.528 86.5118 15.304V21.496C86.5118 23.248 86.9918 24.664 87.9518 25.744C88.9118 26.8 90.2558 27.328 91.9838 27.328C93.7118 27.328 94.9718 26.872 95.7638 25.96C96.5558 25.048 96.9518 23.896 96.9518 22.504V22.144H90.9758V18.112H101.632V31H97.2398V28.588H96.5918C96.4238 28.996 96.1478 29.428 95.7638 29.884C95.4038 30.34 94.8518 30.724 94.1078 31.036C93.3638 31.348 92.3438 31.504 91.0478 31.504ZM103.724 31L110.348 5.8H118.628L125.252 31H120.356L118.988 25.456H109.988L108.62 31H103.724ZM111.104 21.064H117.872L114.812 8.788H114.164L111.104 21.064ZM127.548 31V5.8H132.3V26.68H143.82V31H127.548ZM146.34 31V5.8H151.092V26.68H162.612V31H146.34ZM165.132 31V5.8H181.332V10.12H169.884V16.132H180.324V20.452H169.884V26.68H181.548V31H165.132ZM184.345 31V5.8H195.289C196.873 5.8 198.253 6.076 199.429 6.628C200.605 7.18 201.517 7.96 202.165 8.968C202.813 9.976 203.137 11.164 203.137 12.532V12.964C203.137 14.476 202.777 15.7 202.057 16.636C201.337 17.572 200.449 18.256 199.393 18.688V19.336C200.353 19.384 201.097 19.72 201.625 20.344C202.153 20.944 202.417 21.748 202.417 22.756V31H197.665V23.44C197.665 22.864 197.509 22.396 197.197 22.036C196.909 21.676 196.417 21.496 195.721 21.496H189.097V31H184.345ZM189.097 17.176H194.785C195.913 17.176 196.789 16.876 197.413 16.276C198.061 15.652 198.385 14.836 198.385 13.828V13.468C198.385 12.46 198.073 11.656 197.449 11.056C196.825 10.432 195.937 10.12 194.785 10.12H189.097V17.176ZM212.219 31V22.324L203.651 5.8H208.943L214.271 16.6H214.919L220.247 5.8H225.539L216.971 22.324V31H212.219Z" fill="#ED1F98"/>
</g>
<defs>
<filter id="filter0_d_1107_216" x="0.304001" y="0.296021" width="230.234" height="36.208" filterUnits="userSpaceOnUse" color-interpolation-filters="sRGB">
<feFlood flood-opacity="0" result="BackgroundImageFix"/>
<feColorMatrix in="SourceAlpha" type="matrix" values="0 0 0 0 0 0 0 0 0 0 0 0 0 0 0 0 0 0 127 0" result="hardAlpha"/>
<feOffset/>
<feGaussianBlur stdDeviation="2.5"/>
<feComposite in2="hardAlpha" operator="out"/>
<feColorMatrix type="matrix" values="0 0 0 0 0.85098 0 0 0 0 0.00784314 0 0 0 0 0.501961 0 0 0 1 0"/>
<feBlend mode="normal" in2="BackgroundImageFix" result="effect1_dropShadow_1107_216"/>
<feBlend mode="normal" in="SourceGraphic" in2="effect1_dropShadow_1107_216" result="shape"/>
</filter>
</defs>
</svg>
