<svg width="1314" height="125" viewBox="0 0 1314 125" fill="none" xmlns="http://www.w3.org/2000/svg">
<g filter="url(#filter0_d_1107_697)">
<path d="M64.31 101.66C58.4433 101.66 53.0167 100.707 48.03 98.8C43.1167 96.82 38.8267 94.07 35.16 90.55C31.5667 87.03 28.7433 82.8867 26.69 78.12C24.71 73.3533 23.72 68.1467 23.72 62.5C23.72 56.8533 24.71 51.6467 26.69 46.88C28.7433 42.1133 31.6033 37.97 35.27 34.45C38.9367 30.93 43.2267 28.2167 48.14 26.31C53.1267 24.33 58.5533 23.34 64.42 23.34C70.2867 23.34 75.64 24.2567 80.48 26.09C85.3933 27.9233 89.5733 30.71 93.02 34.45L87.96 39.62C84.7333 36.3933 81.1767 34.0833 77.29 32.69C73.4033 31.2967 69.2233 30.6 64.75 30.6C59.9833 30.6 55.5833 31.4067 51.55 33.02C47.59 34.56 44.1067 36.7967 41.1 39.73C38.1667 42.59 35.8567 45.9633 34.17 49.85C32.5567 53.6633 31.75 57.88 31.75 62.5C31.75 67.0467 32.5567 71.2633 34.17 75.15C35.8567 79.0367 38.1667 82.4467 41.1 85.38C44.1067 88.24 47.59 90.4767 51.55 92.09C55.5833 93.63 59.9467 94.4 64.64 94.4C69.04 94.4 73.1833 93.74 77.07 92.42C81.03 91.1 84.66 88.8633 87.96 85.71L92.58 91.87C88.9133 95.0967 84.6233 97.5533 79.71 99.24C74.7967 100.853 69.6633 101.66 64.31 101.66ZM84.77 90.88V62.5H92.58V91.87L84.77 90.88ZM120.018 101V24L148.838 24C155.365 24 160.975 25.0633 165.668 27.19C170.361 29.2433 173.955 32.25 176.448 36.21C179.015 40.0967 180.298 44.8267 180.298 50.4C180.298 55.8267 179.015 60.52 176.448 64.48C173.955 68.3667 170.361 71.3733 165.668 73.5C160.975 75.5533 155.365 76.58 148.838 76.58H124.528L128.158 72.84V101H120.018ZM172.598 101L152.798 73.06H161.598L181.508 101H172.598ZM128.158 73.5L124.528 69.65H148.618C156.318 69.65 162.148 67.9633 166.108 64.59C170.141 61.2167 172.158 56.4867 172.158 50.4C172.158 44.24 170.141 39.4733 166.108 36.1C162.148 32.7267 156.318 31.04 148.618 31.04H124.528L128.158 27.19V73.5ZM237.57 101.66C231.777 101.66 226.387 100.707 221.4 98.8C216.487 96.82 212.197 94.07 208.53 90.55C204.937 86.9567 202.114 82.8133 200.06 78.12C198.08 73.3533 197.09 68.1467 197.09 62.5C197.09 56.8533 198.08 51.6833 200.06 46.99C202.114 42.2233 204.937 38.08 208.53 34.56C212.197 30.9667 216.487 28.2167 221.4 26.31C226.314 24.33 231.704 23.34 237.57 23.34C243.364 23.34 248.717 24.33 253.63 26.31C258.544 28.2167 262.797 30.93 266.39 34.45C270.057 37.97 272.88 42.1133 274.86 46.88C276.914 51.6467 277.94 56.8533 277.94 62.5C277.94 68.1467 276.914 73.3533 274.86 78.12C272.88 82.8867 270.057 87.03 266.39 90.55C262.797 94.07 258.544 96.82 253.63 98.8C248.717 100.707 243.364 101.66 237.57 101.66ZM237.57 94.4C242.19 94.4 246.444 93.63 250.33 92.09C254.29 90.4767 257.7 88.24 260.56 85.38C263.494 82.4467 265.767 79.0733 267.38 75.26C268.994 71.3733 269.8 67.12 269.8 62.5C269.8 57.88 268.994 53.6633 267.38 49.85C265.767 45.9633 263.494 42.59 260.56 39.73C257.7 36.7967 254.29 34.56 250.33 33.02C246.444 31.4067 242.19 30.6 237.57 30.6C232.95 30.6 228.66 31.4067 224.7 33.02C220.74 34.56 217.294 36.7967 214.36 39.73C211.5 42.59 209.227 45.9633 207.54 49.85C205.927 53.6633 205.12 57.88 205.12 62.5C205.12 67.0467 205.927 71.2633 207.54 75.15C209.227 79.0367 211.5 82.4467 214.36 85.38C217.294 88.24 220.74 90.4767 224.7 92.09C228.66 93.63 232.95 94.4 237.57 94.4ZM315.82 101L289.86 24H298.22L322.53 96.49H318.35L343.43 24H350.91L375.66 96.49H371.7L396.23 24L404.04 24L378.08 101H369.5L345.85 32.25H348.05L324.29 101H315.82ZM476.535 101V72.4L478.405 77.46L445.735 24H454.425L483.135 70.97H478.515L507.225 24H515.365L482.695 77.46L484.565 72.4V101H476.535ZM562.719 101.66C556.926 101.66 551.536 100.707 546.549 98.8C541.636 96.82 537.346 94.07 533.679 90.55C530.086 86.9567 527.262 82.8133 525.209 78.12C523.229 73.3533 522.239 68.1467 522.239 62.5C522.239 56.8533 523.229 51.6833 525.209 46.99C527.262 42.2233 530.086 38.08 533.679 34.56C537.346 30.9667 541.636 28.2167 546.549 26.31C551.462 24.33 556.852 23.34 562.719 23.34C568.512 23.34 573.866 24.33 578.779 26.31C583.692 28.2167 587.946 30.93 591.539 34.45C595.206 37.97 598.029 42.1133 600.009 46.88C602.062 51.6467 603.089 56.8533 603.089 62.5C603.089 68.1467 602.062 73.3533 600.009 78.12C598.029 82.8867 595.206 87.03 591.539 90.55C587.946 94.07 583.692 96.82 578.779 98.8C573.866 100.707 568.512 101.66 562.719 101.66ZM562.719 94.4C567.339 94.4 571.592 93.63 575.479 92.09C579.439 90.4767 582.849 88.24 585.709 85.38C588.642 82.4467 590.916 79.0733 592.529 75.26C594.142 71.3733 594.949 67.12 594.949 62.5C594.949 57.88 594.142 53.6633 592.529 49.85C590.916 45.9633 588.642 42.59 585.709 39.73C582.849 36.7967 579.439 34.56 575.479 33.02C571.592 31.4067 567.339 30.6 562.719 30.6C558.099 30.6 553.809 31.4067 549.849 33.02C545.889 34.56 542.442 36.7967 539.509 39.73C536.649 42.59 534.376 45.9633 532.689 49.85C531.076 53.6633 530.269 57.88 530.269 62.5C530.269 67.0467 531.076 71.2633 532.689 75.15C534.376 79.0367 536.649 82.4467 539.509 85.38C542.442 88.24 545.889 90.4767 549.849 92.09C553.809 93.63 558.099 94.4 562.719 94.4ZM656.755 101.66C646.928 101.66 639.191 98.8367 633.545 93.19C627.898 87.5433 625.075 79.1833 625.075 68.11V24H633.215V67.78C633.215 76.8733 635.268 83.5833 639.375 87.91C643.481 92.2367 649.275 94.4 656.755 94.4C664.308 94.4 670.138 92.2367 674.245 87.91C678.351 83.5833 680.405 76.8733 680.405 67.78V24H688.325V68.11C688.325 79.1833 685.501 87.5433 679.855 93.19C674.281 98.8367 666.581 101.66 656.755 101.66ZM717.254 101V24H723.964L777.094 90.88H773.574V24H781.604V101H774.894L721.874 34.12H725.394V101H717.254ZM844.906 101.66C839.039 101.66 833.613 100.707 828.626 98.8C823.713 96.82 819.423 94.07 815.756 90.55C812.163 87.03 809.339 82.8867 807.286 78.12C805.306 73.3533 804.316 68.1467 804.316 62.5C804.316 56.8533 805.306 51.6467 807.286 46.88C809.339 42.1133 812.199 37.97 815.866 34.45C819.533 30.93 823.823 28.2167 828.736 26.31C833.723 24.33 839.149 23.34 845.016 23.34C850.883 23.34 856.236 24.2567 861.076 26.09C865.989 27.9233 870.169 30.71 873.616 34.45L868.556 39.62C865.329 36.3933 861.773 34.0833 857.886 32.69C853.999 31.2967 849.819 30.6 845.346 30.6C840.579 30.6 836.179 31.4067 832.146 33.02C828.186 34.56 824.703 36.7967 821.696 39.73C818.763 42.59 816.453 45.9633 814.766 49.85C813.153 53.6633 812.346 57.88 812.346 62.5C812.346 67.0467 813.153 71.2633 814.766 75.15C816.453 79.0367 818.763 82.4467 821.696 85.38C824.703 88.24 828.186 90.4767 832.146 92.09C836.179 93.63 840.543 94.4 845.236 94.4C849.636 94.4 853.779 93.74 857.666 92.42C861.626 91.1 865.256 88.8633 868.556 85.71L873.176 91.87C869.509 95.0967 865.219 97.5533 860.306 99.24C855.393 100.853 850.259 101.66 844.906 101.66ZM865.366 90.88V62.5H873.176V91.87L865.366 90.88ZM921.483 101L956.683 24H964.713L999.913 101H991.333L958.993 28.73H962.293L929.953 101H921.483ZM935.343 80.43L937.763 73.83H982.533L984.953 80.43H935.343ZM1049.75 101.66C1043.88 101.66 1038.45 100.707 1033.47 98.8C1028.55 96.82 1024.26 94.07 1020.6 90.55C1017 87.03 1014.18 82.8867 1012.13 78.12C1010.15 73.3533 1009.16 68.1467 1009.16 62.5C1009.16 56.8533 1010.15 51.6467 1012.13 46.88C1014.18 42.1133 1017.04 37.97 1020.71 34.45C1024.37 30.93 1028.66 28.2167 1033.58 26.31C1038.56 24.33 1043.99 23.34 1049.86 23.34C1055.72 23.34 1061.08 24.2567 1065.92 26.09C1070.83 27.9233 1075.01 30.71 1078.46 34.45L1073.4 39.62C1070.17 36.3933 1066.61 34.0833 1062.73 32.69C1058.84 31.2967 1054.66 30.6 1050.19 30.6C1045.42 30.6 1041.02 31.4067 1036.99 33.02C1033.03 34.56 1029.54 36.7967 1026.54 39.73C1023.6 42.59 1021.29 45.9633 1019.61 49.85C1017.99 53.6633 1017.19 57.88 1017.19 62.5C1017.19 67.0467 1017.99 71.2633 1019.61 75.15C1021.29 79.0367 1023.6 82.4467 1026.54 85.38C1029.54 88.24 1033.03 90.4767 1036.99 92.09C1041.02 93.63 1045.38 94.4 1050.08 94.4C1054.48 94.4 1058.62 93.74 1062.51 92.42C1066.47 91.1 1070.1 88.8633 1073.4 85.71L1078.02 91.87C1074.35 95.0967 1070.06 97.5533 1065.15 99.24C1060.23 100.853 1055.1 101.66 1049.75 101.66ZM1070.21 90.88V62.5H1078.02V91.87L1070.21 90.88ZM1093.13 101L1128.33 24H1136.36L1171.56 101H1162.98L1130.64 28.73H1133.94L1101.6 101H1093.13ZM1106.99 80.43L1109.41 73.83H1154.18L1156.6 80.43H1106.99ZM1188.7 101V24H1196.84V101H1188.7ZM1226.3 101V24H1233.01L1286.14 90.88H1282.62V24H1290.65V101H1283.94L1230.92 34.12H1234.44V101H1226.3Z" fill="url(#paint0_linear_1107_697)"/>
<path d="M48.03 98.8L47.2824 100.655L47.299 100.662L47.3157 100.668L48.03 98.8ZM35.16 90.55L33.7604 91.9787L33.7677 91.9858L33.7749 91.9928L35.16 90.55ZM26.69 78.12L24.843 78.8872L24.848 78.8993L24.8532 78.9112L26.69 78.12ZM26.69 46.88L24.8532 46.0888L24.848 46.1007L24.843 46.1128L26.69 46.88ZM35.27 34.45L36.6551 35.8928H36.6551L35.27 34.45ZM48.14 26.31L48.8636 28.1745L48.8708 28.1717L48.8781 28.1688L48.14 26.31ZM80.48 26.09L79.7715 27.9603L79.7808 27.9638L80.48 26.09ZM93.02 34.45L94.4493 35.8489L95.778 34.4914L94.4907 33.0946L93.02 34.45ZM87.96 39.62L86.5458 41.0342L87.9753 42.4637L89.3893 41.0189L87.96 39.62ZM77.29 32.69L77.9649 30.8073L77.29 32.69ZM51.55 33.02L52.2749 34.884L52.2839 34.8805L52.2928 34.8769L51.55 33.02ZM41.1 39.73L42.4962 41.162L42.4966 41.1616L41.1 39.73ZM34.17 49.85L32.3353 49.0538L32.3316 49.0622L32.3281 49.0707L34.17 49.85ZM34.17 75.15L32.3228 75.9168L32.3289 75.9315L32.3353 75.9462L34.17 75.15ZM41.1 85.38L39.6858 86.7942L39.7035 86.8119L39.7216 86.8291L41.1 85.38ZM51.55 92.09L50.7954 93.9422L50.8159 93.9505L50.8366 93.9584L51.55 92.09ZM77.07 92.42L76.4375 90.5226L76.4268 90.5262L77.07 92.42ZM87.96 85.71L89.56 84.51L88.2077 82.707L86.5783 84.264L87.96 85.71ZM92.58 91.87L93.9013 93.3714L95.2897 92.1496L94.18 90.67L92.58 91.87ZM79.71 99.24L80.3339 101.14L80.3467 101.136L80.3594 101.132L79.71 99.24ZM84.77 90.88H82.77V92.6425L84.5185 92.8641L84.77 90.88ZM84.77 62.5V60.5H82.77V62.5H84.77ZM92.58 62.5H94.58V60.5H92.58V62.5ZM92.58 91.87L92.3285 93.8541L94.58 94.1395V91.87H92.58ZM64.31 99.66C58.6633 99.66 53.4814 98.7431 48.7443 96.9319L47.3157 100.668C52.552 102.67 58.2233 103.66 64.31 103.66V99.66ZM48.7776 96.945C44.0909 95.0563 40.0198 92.4429 36.5451 89.1072L33.7749 91.9928C37.6336 95.6971 42.1424 98.5837 47.2824 100.655L48.7776 96.945ZM36.5596 89.1213C33.158 85.7891 30.4806 81.8643 28.5268 77.3288L24.8532 78.9112C27.0061 83.9091 29.9753 88.2709 33.7604 91.9787L36.5596 89.1213ZM28.537 77.3528C26.6671 72.8513 25.72 67.9082 25.72 62.5H21.72C21.72 68.3851 22.7529 73.8554 24.843 78.8872L28.537 77.3528ZM25.72 62.5C25.72 57.0918 26.6671 52.1487 28.537 47.6472L24.843 46.1128C22.7529 51.1446 21.72 56.6149 21.72 62.5H25.72ZM28.5268 47.6712C30.4768 43.1444 33.1851 39.224 36.6551 35.8928L33.8849 33.0072C30.0216 36.716 27.0098 41.0822 24.8532 46.0888L28.5268 47.6712ZM36.6551 35.8928C40.1242 32.5624 44.1871 29.9893 48.8636 28.1745L47.4165 24.4455C42.2662 26.4441 37.7491 29.2976 33.8849 33.0072L36.6551 35.8928ZM48.8781 28.1688C53.6088 26.2905 58.7824 25.34 64.42 25.34V21.34C58.3243 21.34 52.6446 22.3695 47.4019 24.4512L48.8781 28.1688ZM64.42 25.34C70.0766 25.34 75.186 26.2234 79.7715 27.9603L81.1885 24.2197C76.094 22.2899 70.4967 21.34 64.42 21.34V25.34ZM79.7808 27.9638C84.4093 29.6908 88.3223 32.3037 91.5493 35.8054L94.4907 33.0946C90.8244 29.1163 86.3774 26.1558 81.1792 24.2162L79.7808 27.9638ZM91.5907 33.0511L86.5307 38.2211L89.3893 41.0189L94.4493 35.8489L91.5907 33.0511ZM89.3742 38.2058C85.9609 34.7925 82.1577 32.3104 77.9649 30.8073L76.6151 34.5727C80.1956 35.8563 83.5058 37.9942 86.5458 41.0342L89.3742 38.2058ZM77.9649 30.8073C73.8443 29.3301 69.4342 28.6 64.75 28.6V32.6C69.0125 32.6 72.9623 33.2632 76.6151 34.5727L77.9649 30.8073ZM64.75 28.6C59.7537 28.6 55.0988 29.4464 50.8072 31.163L52.2928 34.8769C56.0679 33.3669 60.213 32.6 64.75 32.6V28.6ZM50.8251 31.156C46.6174 32.7923 42.9048 35.175 39.7034 38.2984L42.4966 41.1616C45.3085 38.4183 48.5626 36.3277 52.2749 34.884L50.8251 31.156ZM39.7038 38.298C36.578 41.3457 34.1218 44.937 32.3353 49.0538L36.0047 50.6462C37.5915 46.9896 39.7553 43.8343 42.4962 41.162L39.7038 38.298ZM32.3281 49.0707C30.599 53.1577 29.75 57.6433 29.75 62.5H33.75C33.75 58.1167 34.5144 54.169 36.0119 50.6293L32.3281 49.0707ZM29.75 62.5C29.75 67.2885 30.6007 71.7681 32.3228 75.9168L36.0172 74.3832C34.5126 70.7586 33.75 66.8049 33.75 62.5H29.75ZM32.3353 75.9462C34.1199 80.0584 36.5709 83.6793 39.6858 86.7942L42.5142 83.9658C39.7625 81.214 37.5935 78.0149 36.0047 74.3538L32.3353 75.9462ZM39.7216 86.8291C42.9147 89.8665 46.6113 92.2375 50.7954 93.9422L52.3046 90.2378C48.5687 88.7158 45.2986 86.6135 42.4784 83.9309L39.7216 86.8291ZM50.8366 93.9584C55.1168 95.5927 59.7241 96.4 64.64 96.4V92.4C60.1692 92.4 56.0499 91.6673 52.2634 90.2216L50.8366 93.9584ZM64.64 96.4C69.243 96.4 73.6049 95.709 77.7132 94.3138L76.4268 90.5262C72.7617 91.771 68.837 92.4 64.64 92.4V96.4ZM77.7025 94.3174C81.9678 92.8956 85.8485 90.4939 89.3417 87.156L86.5783 84.264C83.4715 87.2328 80.0922 89.3044 76.4375 90.5226L77.7025 94.3174ZM86.36 86.91L90.98 93.07L94.18 90.67L89.56 84.51L86.36 86.91ZM91.2588 90.3686C87.8006 93.4117 83.7426 95.7411 79.0606 97.3484L80.3594 101.132C85.5041 99.3655 90.026 96.7816 93.9013 93.3714L91.2588 90.3686ZM79.0861 97.3398C74.3811 98.8847 69.4589 99.66 64.31 99.66V103.66C69.8678 103.66 75.2122 102.822 80.3339 101.14L79.0861 97.3398ZM86.77 90.88V62.5H82.77V90.88H86.77ZM84.77 64.5H92.58V60.5H84.77V64.5ZM90.58 62.5V91.87H94.58V62.5H90.58ZM92.8315 89.8859L85.0215 88.8959L84.5185 92.8641L92.3285 93.8541L92.8315 89.8859ZM120.018 101H118.018V103H120.018V101ZM120.018 24V22H118.018V24H120.018ZM165.668 27.19L164.843 29.0117L164.855 29.0171L164.867 29.0223L165.668 27.19ZM176.448 36.21L174.756 37.2756L174.767 37.294L174.779 37.3121L176.448 36.21ZM176.448 64.48L174.77 63.3922L174.765 63.4001L176.448 64.48ZM165.668 73.5L166.47 75.3323L166.482 75.3271L166.494 75.3217L165.668 73.5ZM124.528 76.58L123.093 75.187L119.8 78.58H124.528V76.58ZM128.158 72.84H130.158V67.9078L126.723 71.447L128.158 72.84ZM128.158 101V103H130.158V101H128.158ZM172.598 101L170.966 102.156L171.564 103H172.598V101ZM152.798 73.06V71.06H148.93L151.166 74.2164L152.798 73.06ZM161.598 73.06L163.227 71.8993L162.629 71.06H161.598V73.06ZM181.508 101V103H185.389L183.137 99.8393L181.508 101ZM128.158 73.5L126.703 74.872L130.158 78.5366V73.5H128.158ZM124.528 69.65V67.65H119.894L123.073 71.022L124.528 69.65ZM166.108 64.59L164.825 63.0558L164.818 63.0616L164.811 63.0675L166.108 64.59ZM166.108 36.1L164.811 37.6225L164.818 37.6283L164.825 37.6341L166.108 36.1ZM124.528 31.04L123.073 29.668L119.894 33.04H124.528V31.04ZM128.158 27.19H130.158V22.1534L126.703 25.818L128.158 27.19ZM122.018 101V24H118.018V101H122.018ZM120.018 26L148.838 26V22L120.018 22V26ZM148.838 26C155.153 26 160.468 27.0295 164.843 29.0117L166.494 25.3683C161.482 23.0972 155.576 22 148.838 22V26ZM164.867 29.0223C169.229 30.931 172.496 33.6867 174.756 37.2756L178.141 35.1444C175.414 30.8133 171.494 27.5557 166.47 25.3577L164.867 29.0223ZM174.779 37.3121C177.091 40.8121 178.298 45.1404 178.298 50.4H182.298C182.298 44.513 180.939 39.3812 178.117 35.1079L174.779 37.3121ZM178.298 50.4C178.298 55.5 177.096 59.8026 174.77 63.3922L178.126 65.5678C180.933 61.2374 182.298 56.1534 182.298 50.4H178.298ZM174.765 63.4001C172.503 66.925 169.227 69.6918 164.843 71.6783L166.494 75.3217C171.496 73.0548 175.406 69.8083 178.132 65.5599L174.765 63.4001ZM164.867 71.6677C160.485 73.5846 155.162 74.58 148.838 74.58V78.58C155.568 78.58 161.465 77.5221 166.47 75.3323L164.867 71.6677ZM148.838 74.58H124.528V78.58H148.838V74.58ZM125.963 77.9729L129.593 74.2329L126.723 71.447L123.093 75.187L125.963 77.9729ZM126.158 72.84V101H130.158V72.84H126.158ZM128.158 99H120.018V103H128.158V99ZM174.23 99.8436L154.43 71.9036L151.166 74.2164L170.966 102.156L174.23 99.8436ZM152.798 75.06H161.598V71.06H152.798V75.06ZM159.969 74.2207L179.879 102.161L183.137 99.8393L163.227 71.8993L159.969 74.2207ZM181.508 99H172.598V103H181.508V99ZM129.613 72.128L125.983 68.278L123.073 71.022L126.703 74.872L129.613 72.128ZM124.528 71.65H148.618V67.65H124.528V71.65ZM148.618 71.65C156.572 71.65 162.944 69.9124 167.405 66.1125L164.811 63.0675C161.352 66.0143 156.064 67.65 148.618 67.65V71.65ZM167.391 66.1242C171.953 62.3088 174.158 56.9749 174.158 50.4H170.158C170.158 55.9984 168.33 60.1246 164.825 63.0558L167.391 66.1242ZM174.158 50.4C174.158 43.7606 171.959 38.3861 167.391 34.5658L164.825 37.6341C168.324 40.5606 170.158 44.7194 170.158 50.4H174.158ZM167.405 34.5775C162.944 30.7776 156.572 29.04 148.618 29.04V33.04C156.064 33.04 161.352 34.6757 164.811 37.6225L167.405 34.5775ZM148.618 29.04L124.528 29.04V33.04H148.618V29.04ZM125.983 32.412L129.613 28.562L126.703 25.818L123.073 29.668L125.983 32.412ZM126.158 27.19V73.5H130.158V27.19H126.158ZM221.4 98.8L220.653 100.655L220.669 100.662L220.686 100.668L221.4 98.8ZM208.53 90.55L207.116 91.9642L207.131 91.9786L207.145 91.9928L208.53 90.55ZM200.06 78.12L198.213 78.8872L198.221 78.9045L198.228 78.9216L200.06 78.12ZM200.06 46.99L198.223 46.1987L198.221 46.2057L198.218 46.2126L200.06 46.99ZM208.53 34.56L209.93 35.9887L209.93 35.9884L208.53 34.56ZM221.4 26.31L222.124 28.1745L222.136 28.1699L222.148 28.165L221.4 26.31ZM253.63 26.31L252.883 28.165L252.895 28.1699L252.907 28.1745L253.63 26.31ZM266.39 34.45L264.991 35.8787L264.998 35.8858L265.005 35.8928L266.39 34.45ZM274.86 46.88L273.013 47.6472L273.018 47.6593L273.023 47.6712L274.86 46.88ZM274.86 78.12L273.023 77.3288L273.018 77.3407L273.013 77.3528L274.86 78.12ZM266.39 90.55L265.005 89.1072L264.998 89.1142L264.991 89.1213L266.39 90.55ZM253.63 98.8L254.354 100.665L254.366 100.66L254.378 100.655L253.63 98.8ZM250.33 92.09L251.067 93.9494L251.076 93.9458L251.085 93.9422L250.33 92.09ZM260.56 85.38L259.146 83.9658V83.9658L260.56 85.38ZM267.38 75.26L269.222 76.0393L269.228 76.0268L267.38 75.26ZM267.38 49.85L265.533 50.6168L265.538 50.6293L267.38 49.85ZM260.56 39.73L259.128 41.1262L259.146 41.1443L259.164 41.162L260.56 39.73ZM250.33 33.02L249.564 34.8672L249.584 34.8758L249.605 34.884L250.33 33.02ZM224.7 33.02L225.425 34.884L225.44 34.8782L225.455 34.8722L224.7 33.02ZM214.36 39.73L212.946 38.3158L214.36 39.73ZM207.54 49.85L205.706 49.0538L205.702 49.0622L205.698 49.0707L207.54 49.85ZM207.54 75.15L205.693 75.9168L205.699 75.9315L205.706 75.9462L207.54 75.15ZM214.36 85.38L212.928 86.7762L212.946 86.7943L212.964 86.812L214.36 85.38ZM224.7 92.09L223.946 93.9422L223.961 93.9482L223.975 93.954L224.7 92.09ZM237.57 99.66C232 99.66 226.855 98.7442 222.115 96.9319L220.686 100.668C225.919 102.669 231.554 103.66 237.57 103.66V99.66ZM222.148 96.945C217.461 95.0563 213.39 92.4429 209.915 89.1072L207.145 91.9928C211.004 95.6971 215.513 98.5837 220.653 100.655L222.148 96.945ZM209.945 89.1358C206.529 85.7202 203.847 81.7851 201.893 77.3184L198.228 78.9216C200.38 83.8416 203.345 88.1931 207.116 91.9642L209.945 89.1358ZM201.907 77.3528C200.037 72.8513 199.09 67.9082 199.09 62.5H195.09C195.09 68.3851 196.123 73.8554 198.213 78.8872L201.907 77.3528ZM199.09 62.5C199.09 57.0913 200.038 52.1893 201.903 47.7674L198.218 46.2126C196.123 51.1774 195.09 56.6154 195.09 62.5H199.09ZM201.897 47.7812C203.851 43.2457 206.528 39.3209 209.93 35.9887L207.131 33.1313C203.346 36.8391 200.376 41.2009 198.223 46.1987L201.897 47.7812ZM209.93 35.9884C213.398 32.5899 217.456 29.9858 222.124 28.1745L220.677 24.4455C215.518 26.4475 210.996 29.3434 207.13 33.1316L209.93 35.9884ZM222.148 28.165C226.799 26.2906 231.932 25.34 237.57 25.34V21.34C231.475 21.34 225.828 22.3694 220.653 24.455L222.148 28.165ZM237.57 25.34C243.132 25.34 248.228 26.2894 252.883 28.165L254.378 24.455C249.206 22.3706 243.596 21.34 237.57 21.34V25.34ZM252.907 28.1745C257.58 29.988 261.6 32.5573 264.991 35.8787L267.79 33.0213C263.994 29.3027 259.507 26.4454 254.354 24.4455L252.907 28.1745ZM265.005 35.8928C268.47 39.2188 271.137 43.1311 273.013 47.6472L276.707 46.1128C274.623 41.0956 271.644 36.7212 267.775 33.0072L265.005 35.8928ZM273.023 47.6712C274.96 52.1667 275.94 57.1013 275.94 62.5H279.94C279.94 56.6054 278.867 51.1266 276.697 46.0887L273.023 47.6712ZM275.94 62.5C275.94 67.8987 274.96 72.8333 273.023 77.3288L276.697 78.9112C278.867 73.8734 279.94 68.3946 279.94 62.5H275.94ZM273.013 77.3528C271.137 81.8689 268.47 85.7812 265.005 89.1072L267.775 91.9928C271.644 88.2788 274.623 83.9044 276.707 78.8872L273.013 77.3528ZM264.991 89.1213C261.595 92.4482 257.566 95.0577 252.883 96.945L254.378 100.655C259.521 98.5823 263.999 95.6918 267.79 91.9787L264.991 89.1213ZM252.907 96.9355C248.246 98.7441 243.141 99.66 237.57 99.66V103.66C243.587 103.66 249.188 102.669 254.354 100.665L252.907 96.9355ZM237.57 96.4C242.416 96.4 246.922 95.5916 251.067 93.9494L249.594 90.2306C245.965 91.6684 241.965 92.4 237.57 92.4V96.4ZM251.085 93.9422C255.277 92.2341 258.915 89.8534 261.975 86.7942L259.146 83.9658C256.485 86.6266 253.303 88.7192 249.576 90.2378L251.085 93.9422ZM261.975 86.7942C265.09 83.6791 267.508 80.0903 269.222 76.0393L265.538 74.4807C264.026 78.0564 261.898 81.2142 259.146 83.9658L261.975 86.7942ZM269.228 76.0268C270.951 71.8742 271.8 67.3573 271.8 62.5H267.8C267.8 66.8827 267.036 70.8724 265.533 74.4932L269.228 76.0268ZM271.8 62.5C271.8 57.6433 270.951 53.1577 269.222 49.0707L265.538 50.6293C267.036 54.169 267.8 58.1167 267.8 62.5H271.8ZM269.228 49.0832C267.513 44.9536 265.089 41.3521 261.957 38.298L259.164 41.162C261.898 43.8279 264.021 46.9731 265.533 50.6168L269.228 49.0832ZM261.992 38.3338C258.925 35.1881 255.271 32.7957 251.055 31.156L249.605 34.884C253.309 36.3243 256.475 38.4052 259.128 41.1262L261.992 38.3338ZM251.097 31.1728C246.945 29.4491 242.428 28.6 237.57 28.6V32.6C241.953 32.6 245.943 33.3642 249.564 34.8672L251.097 31.1728ZM237.57 28.6C232.713 28.6 228.164 29.4492 223.946 31.1678L225.455 34.8722C229.157 33.3641 233.188 32.6 237.57 32.6V28.6ZM223.975 31.156C219.763 32.794 216.08 35.1815 212.946 38.3158L215.775 41.1442C218.507 38.4118 221.717 36.326 225.425 34.884L223.975 31.156ZM212.946 38.3158C209.9 41.3619 207.488 44.9477 205.706 49.0538L209.375 50.6462C210.966 46.979 213.101 43.8181 215.775 41.1442L212.946 38.3158ZM205.698 49.0707C203.969 53.1577 203.12 57.6433 203.12 62.5H207.12C207.12 58.1167 207.885 54.169 209.382 50.6293L205.698 49.0707ZM203.12 62.5C203.12 67.2885 203.971 71.7681 205.693 75.9168L209.387 74.3832C207.883 70.7586 207.12 66.8049 207.12 62.5H203.12ZM205.706 75.9462C207.486 80.0479 209.893 83.663 212.928 86.7762L215.792 83.9838C213.108 81.2303 210.968 78.0254 209.375 74.3538L205.706 75.9462ZM212.964 86.812C216.09 89.86 219.757 92.2358 223.946 93.9422L225.455 90.2378C221.723 88.7175 218.497 86.62 215.757 83.948L212.964 86.812ZM223.975 93.954C228.186 95.5914 232.724 96.4 237.57 96.4V92.4C233.177 92.4 229.135 91.6686 225.425 90.226L223.975 93.954ZM315.82 101L313.925 101.639L314.384 103H315.82V101ZM289.86 24V22H287.075L287.965 24.6389L289.86 24ZM298.22 24L300.116 23.3641L299.659 22H298.22V24ZM322.53 96.49V98.49H325.31L324.426 95.8541L322.53 96.49ZM318.35 96.49L316.46 95.8361L315.542 98.49H318.35V96.49ZM343.43 24V22H342.005L341.54 23.3461L343.43 24ZM350.91 24L352.803 23.3538L352.34 22H350.91V24ZM375.66 96.49V98.49H378.456L377.553 95.8438L375.66 96.49ZM371.7 96.49L369.805 95.8489L368.912 98.49H371.7V96.49ZM396.23 24V22H394.795L394.335 23.3589L396.23 24ZM404.04 24L405.935 24.6389L406.825 22H404.04V24ZM378.08 101V103H379.516L379.975 101.639L378.08 101ZM369.5 101L367.609 101.651L368.073 103H369.5V101ZM345.85 32.25V30.25H343.047L343.959 32.9006L345.85 32.25ZM348.05 32.25L349.94 32.9033L350.857 30.25H348.05V32.25ZM324.29 101V103H325.715L326.18 101.653L324.29 101ZM317.715 100.361L291.755 23.361L287.965 24.6389L313.925 101.639L317.715 100.361ZM289.86 26H298.22V22H289.86V26ZM296.324 24.6359L320.634 97.1259L324.426 95.8541L300.116 23.3641L296.324 24.6359ZM322.53 94.49H318.35V98.49H322.53V94.49ZM320.24 97.1439L345.32 24.6539L341.54 23.3461L316.46 95.8361L320.24 97.1439ZM343.43 26H350.91V22H343.43V26ZM349.017 24.6462L373.767 97.1362L377.553 95.8438L352.803 23.3538L349.017 24.6462ZM375.66 94.49H371.7V98.49H375.66V94.49ZM373.594 97.1311L398.124 24.6411L394.335 23.3589L369.805 95.8489L373.594 97.1311ZM396.23 26L404.04 26V22L396.23 22V26ZM402.145 23.361L376.185 100.361L379.975 101.639L405.935 24.6389L402.145 23.361ZM378.08 99H369.5V103H378.08V99ZM371.391 100.349L347.741 31.5994L343.959 32.9006L367.609 101.651L371.391 100.349ZM345.85 34.25H348.05V30.25H345.85V34.25ZM346.16 31.5967L322.4 100.347L326.18 101.653L349.94 32.9033L346.16 31.5967ZM324.29 99H315.82V103H324.29V99ZM476.535 101H474.535V103H476.535V101ZM476.535 72.4L478.411 71.7067L474.535 72.4H476.535ZM478.405 77.46L476.698 78.5029L480.281 76.7667L478.405 77.46ZM445.735 24V22H442.169L444.028 25.0429L445.735 24ZM454.425 24L456.131 22.9569L455.547 22H454.425V24ZM483.135 70.97V72.97H486.702L484.841 69.9269L483.135 70.97ZM478.515 70.97L476.809 69.9269L474.948 72.97H478.515V70.97ZM507.225 24V22H506.103L505.519 22.9569L507.225 24ZM515.365 24L517.072 25.0429L518.931 22H515.365V24ZM482.695 77.46L480.819 76.7667L484.402 78.5029L482.695 77.46ZM484.565 72.4H486.565L482.689 71.7067L484.565 72.4ZM484.565 101V103H486.565V101H484.565ZM478.535 101V72.4H474.535V101H478.535ZM474.659 73.0933L476.529 78.1533L480.281 76.7667L478.411 71.7067L474.659 73.0933ZM480.112 76.4171L447.442 22.9571L444.028 25.0429L476.698 78.5029L480.112 76.4171ZM445.735 26H454.425V22H445.735V26ZM452.719 25.0431L481.429 72.0131L484.841 69.9269L456.131 22.9569L452.719 25.0431ZM483.135 68.97H478.515V72.97H483.135V68.97ZM480.221 72.0131L508.931 25.0431L505.519 22.9569L476.809 69.9269L480.221 72.0131ZM507.225 26H515.365V22H507.225V26ZM513.658 22.9571L480.988 76.4171L484.402 78.5029L517.072 25.0429L513.658 22.9571ZM484.571 78.1533L486.441 73.0933L482.689 71.7067L480.819 76.7667L484.571 78.1533ZM482.565 72.4V101H486.565V72.4H482.565ZM484.565 99H476.535V103H484.565V99ZM546.549 98.8L545.802 100.655L545.818 100.662L545.835 100.668L546.549 98.8ZM533.679 90.55L532.265 91.9642L532.279 91.9786L532.294 91.9928L533.679 90.55ZM525.209 78.12L523.362 78.8872L523.369 78.9045L523.377 78.9216L525.209 78.12ZM525.209 46.99L523.372 46.1987L523.369 46.2057L523.366 46.2126L525.209 46.99ZM533.679 34.56L535.079 35.9887L535.079 35.9884L533.679 34.56ZM546.549 26.31L547.273 28.1745L547.285 28.1699L547.297 28.165L546.549 26.31ZM578.779 26.31L578.032 28.165L578.044 28.1699L578.056 28.1745L578.779 26.31ZM591.539 34.45L590.14 35.8787L590.147 35.8858L590.154 35.8928L591.539 34.45ZM600.009 46.88L598.162 47.6472L598.167 47.6593L598.172 47.6712L600.009 46.88ZM600.009 78.12L598.172 77.3288L598.167 77.3407L598.162 77.3528L600.009 78.12ZM591.539 90.55L590.154 89.1072L590.147 89.1142L590.14 89.1213L591.539 90.55ZM578.779 98.8L579.503 100.665L579.515 100.66L579.527 100.655L578.779 98.8ZM575.479 92.09L576.216 93.9494L576.225 93.9458L576.234 93.9422L575.479 92.09ZM585.709 85.38L584.295 83.9658V83.9658L585.709 85.38ZM592.529 75.26L594.371 76.0393L594.376 76.0268L592.529 75.26ZM592.529 49.85L590.682 50.6168L590.687 50.6293L592.529 49.85ZM585.709 39.73L584.277 41.1262L584.295 41.1443L584.313 41.162L585.709 39.73ZM575.479 33.02L574.712 34.8672L574.733 34.8758L574.754 34.884L575.479 33.02ZM549.849 33.02L550.574 34.884L550.589 34.8782L550.604 34.8722L549.849 33.02ZM539.509 39.73L538.095 38.3158L539.509 39.73ZM532.689 49.85L530.854 49.0538L530.851 49.0622L530.847 49.0707L532.689 49.85ZM532.689 75.15L530.842 75.9168L530.848 75.9315L530.854 75.9462L532.689 75.15ZM539.509 85.38L538.077 86.7762L538.095 86.7943L538.113 86.812L539.509 85.38ZM549.849 92.09L549.095 93.9422L549.109 93.9482L549.124 93.954L549.849 92.09ZM562.719 99.66C557.149 99.66 552.003 98.7442 547.263 96.9319L545.835 100.668C551.068 102.669 556.703 103.66 562.719 103.66V99.66ZM547.297 96.945C542.61 95.0563 538.539 92.4429 535.064 89.1072L532.294 91.9928C536.153 95.6971 540.662 98.5837 545.802 100.655L547.297 96.945ZM535.093 89.1358C531.678 85.7202 528.996 81.7851 527.041 77.3184L523.377 78.9216C525.529 83.8416 528.494 88.1931 532.265 91.9642L535.093 89.1358ZM527.056 77.3528C525.186 72.8513 524.239 67.9082 524.239 62.5H520.239C520.239 68.3851 521.272 73.8554 523.362 78.8872L527.056 77.3528ZM524.239 62.5C524.239 57.0913 525.186 52.1893 527.052 47.7674L523.366 46.2126C521.272 51.1774 520.239 56.6154 520.239 62.5H524.239ZM527.046 47.7812C529 43.2457 531.677 39.3209 535.079 35.9887L532.28 33.1313C528.494 36.8391 525.525 41.2009 523.372 46.1987L527.046 47.7812ZM535.079 35.9884C538.547 32.5899 542.605 29.9858 547.273 28.1745L545.826 24.4455C540.667 26.4475 536.145 29.3434 532.279 33.1316L535.079 35.9884ZM547.297 28.165C551.948 26.2906 557.081 25.34 562.719 25.34V21.34C556.624 21.34 550.977 22.3694 545.802 24.455L547.297 28.165ZM562.719 25.34C568.28 25.34 573.377 26.2894 578.032 28.165L579.527 24.455C574.354 22.3706 568.745 21.34 562.719 21.34V25.34ZM578.056 28.1745C582.729 29.988 586.749 32.5573 590.14 35.8787L592.939 33.0213C589.143 29.3027 584.656 26.4454 579.503 24.4455L578.056 28.1745ZM590.154 35.8928C593.619 39.2188 596.286 43.1311 598.162 47.6472L601.856 46.1128C599.772 41.0956 596.793 36.7212 592.924 33.0072L590.154 35.8928ZM598.172 47.6712C600.109 52.1667 601.089 57.1013 601.089 62.5H605.089C605.089 56.6054 604.016 51.1266 601.846 46.0887L598.172 47.6712ZM601.089 62.5C601.089 67.8987 600.109 72.8333 598.172 77.3288L601.846 78.9112C604.016 73.8734 605.089 68.3946 605.089 62.5H601.089ZM598.162 77.3528C596.286 81.8689 593.619 85.7812 590.154 89.1072L592.924 91.9928C596.793 88.2788 599.772 83.9044 601.856 78.8872L598.162 77.3528ZM590.14 89.1213C586.743 92.4482 582.715 95.0577 578.032 96.945L579.527 100.655C584.67 98.5823 589.148 95.6918 592.939 91.9787L590.14 89.1213ZM578.056 96.9355C573.395 98.7441 568.29 99.66 562.719 99.66V103.66C568.735 103.66 574.337 102.669 579.503 100.665L578.056 96.9355ZM562.719 96.4C567.565 96.4 572.071 95.5916 576.216 93.9494L574.742 90.2306C571.114 91.6684 567.113 92.4 562.719 92.4V96.4ZM576.234 93.9422C580.426 92.2341 584.064 89.8534 587.123 86.7942L584.295 83.9658C581.634 86.6266 578.452 88.7192 574.725 90.2378L576.234 93.9422ZM587.123 86.7942C590.238 83.6791 592.657 80.0903 594.371 76.0393L590.687 74.4807C589.174 78.0564 587.047 81.2142 584.295 83.9658L587.123 86.7942ZM594.376 76.0268C596.1 71.8742 596.949 67.3573 596.949 62.5H592.949C592.949 66.8827 592.185 70.8724 590.682 74.4932L594.376 76.0268ZM596.949 62.5C596.949 57.6433 596.1 53.1577 594.371 49.0707L590.687 50.6293C592.185 54.169 592.949 58.1167 592.949 62.5H596.949ZM594.376 49.0832C592.662 44.9536 590.238 41.3521 587.105 38.298L584.313 41.162C587.047 43.8279 589.169 46.9731 590.682 50.6168L594.376 49.0832ZM587.141 38.3338C584.074 35.1881 580.42 32.7957 576.204 31.156L574.754 34.884C578.458 36.3243 581.624 38.4052 584.277 41.1262L587.141 38.3338ZM576.246 31.1728C572.093 29.4491 567.576 28.6 562.719 28.6V32.6C567.102 32.6 571.092 33.3642 574.712 34.8672L576.246 31.1728ZM562.719 28.6C557.861 28.6 553.313 29.4492 549.095 31.1678L550.604 34.8722C554.305 33.3641 558.337 32.6 562.719 32.6V28.6ZM549.124 31.156C544.912 32.794 541.229 35.1815 538.095 38.3158L540.923 41.1442C543.656 38.4118 546.866 36.326 550.574 34.884L549.124 31.156ZM538.095 38.3158C535.049 41.3619 532.636 44.9477 530.854 49.0538L534.524 50.6462C536.115 46.979 538.249 43.8181 540.923 41.1442L538.095 38.3158ZM530.847 49.0707C529.118 53.1577 528.269 57.6433 528.269 62.5L532.269 62.5C532.269 58.1167 533.034 54.169 534.531 50.6293L530.847 49.0707ZM528.269 62.5C528.269 67.2885 529.12 71.7681 530.842 75.9168L534.536 74.3832C533.032 70.7586 532.269 66.8049 532.269 62.5L528.269 62.5ZM530.854 75.9462C532.634 80.0479 535.042 83.663 538.077 86.7762L540.941 83.9838C538.256 81.2303 536.117 78.0254 534.524 74.3538L530.854 75.9462ZM538.113 86.812C541.239 89.86 544.906 92.2358 549.095 93.9422L550.604 90.2378C546.872 88.7175 543.646 86.62 540.905 83.948L538.113 86.812ZM549.124 93.954C553.335 95.5914 557.873 96.4 562.719 96.4V92.4C558.325 92.4 554.284 91.6686 550.574 90.226L549.124 93.954ZM633.544 93.19L632.13 94.6042L633.544 93.19ZM625.075 24V22H623.075V24H625.075ZM633.215 24H635.215V22H633.215V24ZM680.405 24V22H678.405V24H680.405ZM688.325 24H690.325V22H688.325V24ZM679.854 93.19L678.44 91.7758L678.431 91.7851L679.854 93.19ZM656.755 99.66C647.328 99.66 640.148 96.9646 634.959 91.7758L632.13 94.6042C638.235 100.709 646.527 103.66 656.755 103.66V99.66ZM634.959 91.7758C629.813 86.6298 627.075 78.8618 627.075 68.11H623.075C623.075 79.5049 625.983 88.4569 632.13 94.6042L634.959 91.7758ZM627.075 68.11V24H623.075V68.11H627.075ZM625.075 26H633.215V22H625.075V26ZM631.215 24V67.78H635.215V24H631.215ZM631.215 67.78C631.215 77.124 633.318 84.4344 637.924 89.2868L640.825 86.5331C637.218 82.7323 635.215 76.6227 635.215 67.78H631.215ZM637.924 89.2868C642.499 94.1074 648.874 96.4 656.755 96.4V92.4C649.675 92.4 644.463 90.3659 640.825 86.5331L637.924 89.2868ZM656.755 96.4C664.702 96.4 671.116 94.1112 675.695 89.2868L672.794 86.5331C669.16 90.3621 663.914 92.4 656.755 92.4V96.4ZM675.695 89.2868C680.301 84.4344 682.405 77.124 682.405 67.78H678.405C678.405 76.6227 676.401 82.7323 672.794 86.5331L675.695 89.2868ZM682.405 67.78V24H678.405V67.78H682.405ZM680.405 26H688.325V22H680.405V26ZM686.325 24V68.11H690.325V24H686.325ZM686.325 68.11C686.325 78.8618 683.586 86.6298 678.44 91.7758L681.269 94.6042C687.416 88.4569 690.325 79.5049 690.325 68.11H686.325ZM678.431 91.7851C673.319 96.9643 666.182 99.66 656.755 99.66V103.66C666.981 103.66 675.243 100.709 681.278 94.5949L678.431 91.7851ZM717.254 101H715.254V103H717.254V101ZM717.254 24V22H715.254V24H717.254ZM723.964 24L725.53 22.756L724.929 22H723.964V24ZM777.094 90.88V92.88H781.237L778.66 89.636L777.094 90.88ZM773.574 90.88H771.574V92.88H773.574V90.88ZM773.574 24V22H771.574V24H773.574ZM781.604 24H783.604V22H781.604V24ZM781.604 101V103H783.604V101H781.604ZM774.894 101L773.326 102.242L773.927 103H774.894V101ZM721.874 34.12V32.12H717.736L720.306 35.3625L721.874 34.12ZM725.394 34.12H727.394V32.12H725.394V34.12ZM725.394 101V103H727.394V101H725.394ZM719.254 101V24H715.254V101H719.254ZM717.254 26H723.964V22H717.254V26ZM722.398 25.244L775.528 92.124L778.66 89.636L725.53 22.756L722.398 25.244ZM777.094 88.88H773.574V92.88H777.094V88.88ZM775.574 90.88V24H771.574V90.88H775.574ZM773.574 26H781.604V22H773.574V26ZM779.604 24V101H783.604V24H779.604ZM781.604 99H774.894V103H781.604V99ZM776.461 99.7575L723.441 32.8775L720.306 35.3625L773.326 102.242L776.461 99.7575ZM721.874 36.12H725.394V32.12H721.874V36.12ZM723.394 34.12V101H727.394V34.12H723.394ZM725.394 99H717.254V103H725.394V99ZM828.626 98.8L827.879 100.655L827.895 100.662L827.912 100.668L828.626 98.8ZM815.756 90.55L814.357 91.9787L814.364 91.9858L814.371 91.9928L815.756 90.55ZM807.286 78.12L805.439 78.8872L805.444 78.8993L805.449 78.9112L807.286 78.12ZM807.286 46.88L805.449 46.0888L805.444 46.1007L805.439 46.1128L807.286 46.88ZM815.866 34.45L817.251 35.8928L815.866 34.45ZM828.736 26.31L829.46 28.1745L829.467 28.1717L829.474 28.1688L828.736 26.31ZM861.076 26.09L860.368 27.9603L860.377 27.9638L861.076 26.09ZM873.616 34.45L875.045 35.8489L876.374 34.4914L875.087 33.0946L873.616 34.45ZM868.556 39.62L867.142 41.0342L868.571 42.4637L869.985 41.0189L868.556 39.62ZM857.886 32.69L858.561 30.8073L857.886 32.69ZM832.146 33.02L832.871 34.884L832.88 34.8805L832.889 34.8769L832.146 33.02ZM821.696 39.73L823.092 41.162L823.093 41.1616L821.696 39.73ZM814.766 49.85L812.931 49.0538L812.928 49.0622L812.924 49.0707L814.766 49.85ZM814.766 75.15L812.919 75.9168L812.925 75.9315L812.931 75.9462L814.766 75.15ZM821.696 85.38L820.282 86.7942L820.3 86.8119L820.318 86.8291L821.696 85.38ZM832.146 92.09L831.391 93.9422L831.412 93.9505L831.433 93.9584L832.146 92.09ZM857.666 92.42L857.034 90.5226L857.023 90.5262L857.666 92.42ZM868.556 85.71L870.156 84.51L868.804 82.707L867.174 84.264L868.556 85.71ZM873.176 91.87L874.497 93.3714L875.886 92.1496L874.776 90.67L873.176 91.87ZM860.306 99.24L860.93 101.14L860.943 101.136L860.955 101.132L860.306 99.24ZM865.366 90.88H863.366V92.6425L865.115 92.8641L865.366 90.88ZM865.366 62.5V60.5H863.366V62.5H865.366ZM873.176 62.5H875.176V60.5H873.176V62.5ZM873.176 91.87L872.925 93.8541L875.176 94.1395V91.87H873.176ZM844.906 99.66C839.259 99.66 834.077 98.7431 829.34 96.9319L827.912 100.668C833.148 102.67 838.819 103.66 844.906 103.66V99.66ZM829.374 96.945C824.687 95.0563 820.616 92.4429 817.141 89.1072L814.371 91.9928C818.23 95.6971 822.738 98.5837 827.879 100.655L829.374 96.945ZM817.156 89.1213C813.754 85.7891 811.077 81.8643 809.123 77.3288L805.449 78.9112C807.602 83.9091 810.571 88.2709 814.357 91.9787L817.156 89.1213ZM809.133 77.3528C807.263 72.8513 806.316 67.9082 806.316 62.5H802.316C802.316 68.3851 803.349 73.8554 805.439 78.8872L809.133 77.3528ZM806.316 62.5C806.316 57.0918 807.263 52.1487 809.133 47.6472L805.439 46.1128C803.349 51.1446 802.316 56.6149 802.316 62.5H806.316ZM809.123 47.6712C811.073 43.1444 813.781 39.224 817.251 35.8928L814.481 33.0072C810.618 36.716 807.606 41.0822 805.449 46.0888L809.123 47.6712ZM817.251 35.8928C820.72 32.5624 824.783 29.9893 829.46 28.1745L828.013 24.4455C822.862 26.4441 818.345 29.2976 814.481 33.0072L817.251 35.8928ZM829.474 28.1688C834.205 26.2905 839.378 25.34 845.016 25.34V21.34C838.92 21.34 833.241 22.3695 827.998 24.4512L829.474 28.1688ZM845.016 25.34C850.673 25.34 855.782 26.2234 860.368 27.9603L861.785 24.2197C856.69 22.2899 851.093 21.34 845.016 21.34V25.34ZM860.377 27.9638C865.005 29.6908 868.918 32.3037 872.145 35.8054L875.087 33.0946C871.42 29.1163 866.973 26.1558 861.775 24.2162L860.377 27.9638ZM872.187 33.0511L867.127 38.2211L869.985 41.0189L875.045 35.8489L872.187 33.0511ZM869.97 38.2058C866.557 34.7925 862.754 32.3104 858.561 30.8073L857.211 34.5727C860.792 35.8563 864.102 37.9942 867.142 41.0342L869.97 38.2058ZM858.561 30.8073C854.44 29.3301 850.03 28.6 845.346 28.6V32.6C849.609 32.6 853.558 33.2632 857.211 34.5727L858.561 30.8073ZM845.346 28.6C840.35 28.6 835.695 29.4464 831.403 31.163L832.889 34.8769C836.664 33.3669 840.809 32.6 845.346 32.6V28.6ZM831.421 31.156C827.213 32.7923 823.501 35.175 820.299 38.2984L823.093 41.1616C825.905 38.4183 829.159 36.3277 832.871 34.884L831.421 31.156ZM820.3 38.298C817.174 41.3457 814.718 44.937 812.931 49.0538L816.601 50.6462C818.188 46.9896 820.351 43.8343 823.092 41.162L820.3 38.298ZM812.924 49.0707C811.195 53.1577 810.346 57.6433 810.346 62.5H814.346C814.346 58.1167 815.11 54.169 816.608 50.6293L812.924 49.0707ZM810.346 62.5C810.346 67.2885 811.197 71.7681 812.919 75.9168L816.613 74.3832C815.109 70.7586 814.346 66.8049 814.346 62.5H810.346ZM812.931 75.9462C814.716 80.0584 817.167 83.6793 820.282 86.7942L823.11 83.9658C820.359 81.214 818.19 78.0149 816.601 74.3538L812.931 75.9462ZM820.318 86.8291C823.511 89.8665 827.207 92.2375 831.391 93.9422L832.901 90.2378C829.165 88.7158 825.895 86.6135 823.075 83.9309L820.318 86.8291ZM831.433 93.9584C835.713 95.5927 840.32 96.4 845.236 96.4V92.4C840.765 92.4 836.646 91.6673 832.859 90.2216L831.433 93.9584ZM845.236 96.4C849.839 96.4 854.201 95.709 858.309 94.3138L857.023 90.5262C853.358 91.771 849.433 92.4 845.236 92.4V96.4ZM858.299 94.3174C862.564 92.8956 866.445 90.4939 869.938 87.156L867.174 84.264C864.068 87.2328 860.688 89.3044 857.034 90.5226L858.299 94.3174ZM866.956 86.91L871.576 93.07L874.776 90.67L870.156 84.51L866.956 86.91ZM871.855 90.3686C868.397 93.4117 864.339 95.7411 859.657 97.3484L860.955 101.132C866.1 99.3655 870.622 96.7816 874.497 93.3714L871.855 90.3686ZM859.682 97.3398C854.977 98.8847 850.055 99.66 844.906 99.66V103.66C850.464 103.66 855.808 102.822 860.93 101.14L859.682 97.3398ZM867.366 90.88V62.5H863.366V90.88H867.366ZM865.366 64.5H873.176V60.5H865.366V64.5ZM871.176 62.5V91.87H875.176V62.5H871.176ZM873.428 89.8859L865.618 88.8959L865.115 92.8641L872.925 93.8541L873.428 89.8859ZM921.483 101L919.664 100.168L918.37 103H921.483V101ZM956.683 24V22H955.398L954.864 23.1685L956.683 24ZM964.713 24L966.532 23.1685L965.998 22H964.713V24ZM999.913 101V103H1003.03L1001.73 100.168L999.913 101ZM991.333 101L989.508 101.817L990.037 103H991.333V101ZM958.993 28.73V26.73H955.907L957.168 29.5469L958.993 28.73ZM962.293 28.73L964.119 29.5469L965.379 26.73H962.293V28.73ZM929.953 101V103H931.249L931.779 101.817L929.953 101ZM935.343 80.43L933.466 79.7415L932.48 82.43H935.343V80.43ZM937.763 73.83V71.83H936.366L935.886 73.1415L937.763 73.83ZM982.533 73.83L984.411 73.1415L983.93 71.83H982.533V73.83ZM984.953 80.43V82.43H987.817L986.831 79.7415L984.953 80.43ZM923.302 101.832L958.502 24.8315L954.864 23.1685L919.664 100.168L923.302 101.832ZM956.683 26H964.713V22H956.683V26ZM962.894 24.8315L998.094 101.832L1001.73 100.168L966.532 23.1685L962.894 24.8315ZM999.913 99H991.333V103H999.913V99ZM993.159 100.183L960.819 27.9131L957.168 29.5469L989.508 101.817L993.159 100.183ZM958.993 30.73H962.293V26.73H958.993V30.73ZM960.468 27.9131L928.128 100.183L931.779 101.817L964.119 29.5469L960.468 27.9131ZM929.953 99H921.483V103H929.953V99ZM937.221 81.1185L939.641 74.5185L935.886 73.1415L933.466 79.7415L937.221 81.1185ZM937.763 75.83H982.533V71.83H937.763V75.83ZM980.656 74.5185L983.076 81.1185L986.831 79.7415L984.411 73.1415L980.656 74.5185ZM984.953 78.43H935.343V82.43H984.953V78.43ZM1033.47 98.8L1032.72 100.655L1032.74 100.662L1032.75 100.668L1033.47 98.8ZM1020.6 90.55L1019.2 91.9787L1019.2 91.9858L1019.21 91.9928L1020.6 90.55ZM1012.13 78.12L1010.28 78.8872L1010.28 78.8993L1010.29 78.9112L1012.13 78.12ZM1012.13 46.88L1010.29 46.0888L1010.28 46.1007L1010.28 46.1128L1012.13 46.88ZM1020.71 34.45L1022.09 35.8928L1020.71 34.45ZM1033.58 26.31L1034.3 28.1745L1034.31 28.1717L1034.31 28.1688L1033.58 26.31ZM1065.92 26.09L1065.21 27.9603L1065.22 27.9638L1065.92 26.09ZM1078.46 34.45L1079.89 35.8489L1081.21 34.4914L1079.93 33.0946L1078.46 34.45ZM1073.4 39.62L1071.98 41.0342L1073.41 42.4637L1074.83 41.0189L1073.4 39.62ZM1062.73 32.69L1063.4 30.8073L1062.73 32.69ZM1036.99 33.02L1037.71 34.884L1037.72 34.8805L1037.73 34.8769L1036.99 33.02ZM1026.54 39.73L1027.93 41.162L1027.93 41.1616L1026.54 39.73ZM1019.61 49.85L1017.77 49.0538L1017.77 49.0622L1017.76 49.0707L1019.61 49.85ZM1019.61 75.15L1017.76 75.9168L1017.77 75.9315L1017.77 75.9462L1019.61 75.15ZM1026.54 85.38L1025.12 86.7942L1025.14 86.8119L1025.16 86.8291L1026.54 85.38ZM1036.99 92.09L1036.23 93.9422L1036.25 93.9505L1036.27 93.9584L1036.99 92.09ZM1062.51 92.42L1061.87 90.5226L1061.86 90.5262L1062.51 92.42ZM1073.4 85.71L1075 84.51L1073.64 82.707L1072.02 84.264L1073.4 85.71ZM1078.02 91.87L1079.34 93.3714L1080.73 92.1496L1079.62 90.67L1078.02 91.87ZM1065.15 99.24L1065.77 101.14L1065.78 101.136L1065.8 101.132L1065.15 99.24ZM1070.21 90.88H1068.21V92.6425L1069.96 92.8641L1070.21 90.88ZM1070.21 62.5V60.5H1068.21V62.5H1070.21ZM1078.02 62.5H1080.02V60.5H1078.02V62.5ZM1078.02 91.87L1077.77 93.8541L1080.02 94.1395V91.87H1078.02ZM1049.75 99.66C1044.1 99.66 1038.92 98.7431 1034.18 96.9319L1032.75 100.668C1037.99 102.67 1043.66 103.66 1049.75 103.66V99.66ZM1034.21 96.945C1029.53 95.0563 1025.46 92.4429 1021.98 89.1072L1019.21 91.9928C1023.07 95.6971 1027.58 98.5837 1032.72 100.655L1034.21 96.945ZM1022 89.1213C1018.59 85.7891 1015.92 81.8643 1013.96 77.3288L1010.29 78.9112C1012.44 83.9091 1015.41 88.2709 1019.2 91.9787L1022 89.1213ZM1013.97 77.3528C1012.1 72.8513 1011.16 67.9082 1011.16 62.5H1007.16C1007.16 68.3851 1008.19 73.8554 1010.28 78.8872L1013.97 77.3528ZM1011.16 62.5C1011.16 57.0918 1012.1 52.1487 1013.97 47.6472L1010.28 46.1128C1008.19 51.1446 1007.16 56.6149 1007.16 62.5H1011.16ZM1013.96 47.6712C1015.91 43.1444 1018.62 39.224 1022.09 35.8928L1019.32 33.0072C1015.46 36.716 1012.45 41.0822 1010.29 46.0888L1013.96 47.6712ZM1022.09 35.8928C1025.56 32.5624 1029.62 29.9893 1034.3 28.1745L1032.85 24.4455C1027.7 26.4441 1023.19 29.2976 1019.32 33.0072L1022.09 35.8928ZM1034.31 28.1688C1039.05 26.2905 1044.22 25.34 1049.86 25.34V21.34C1043.76 21.34 1038.08 22.3695 1032.84 24.4512L1034.31 28.1688ZM1049.86 25.34C1055.51 25.34 1060.62 26.2234 1065.21 27.9603L1066.63 24.2197C1061.53 22.2899 1055.93 21.34 1049.86 21.34V25.34ZM1065.22 27.9638C1069.85 29.6908 1073.76 32.3037 1076.99 35.8054L1079.93 33.0946C1076.26 29.1163 1071.81 26.1558 1066.62 24.2162L1065.22 27.9638ZM1077.03 33.0511L1071.97 38.2211L1074.83 41.0189L1079.89 35.8489L1077.03 33.0511ZM1074.81 38.2058C1071.4 34.7925 1067.59 32.3104 1063.4 30.8073L1062.05 34.5727C1065.63 35.8563 1068.94 37.9942 1071.98 41.0342L1074.81 38.2058ZM1063.4 30.8073C1059.28 29.3301 1054.87 28.6 1050.19 28.6V32.6C1054.45 32.6 1058.4 33.2632 1062.05 34.5727L1063.4 30.8073ZM1050.19 28.6C1045.19 28.6 1040.54 29.4464 1036.24 31.163L1037.73 34.8769C1041.5 33.3669 1045.65 32.6 1050.19 32.6V28.6ZM1036.26 31.156C1032.05 32.7923 1028.34 35.175 1025.14 38.2984L1027.93 41.1616C1030.75 38.4183 1034 36.3277 1037.71 34.884L1036.26 31.156ZM1025.14 38.298C1022.01 41.3457 1019.56 44.937 1017.77 49.0538L1021.44 50.6462C1023.03 46.9896 1025.19 43.8343 1027.93 41.162L1025.14 38.298ZM1017.76 49.0707C1016.04 53.1577 1015.19 57.6433 1015.19 62.5H1019.19C1019.19 58.1167 1019.95 54.169 1021.45 50.6293L1017.76 49.0707ZM1015.19 62.5C1015.19 67.2885 1016.04 71.7681 1017.76 75.9168L1021.45 74.3832C1019.95 70.7586 1019.19 66.8049 1019.19 62.5H1015.19ZM1017.77 75.9462C1019.56 80.0584 1022.01 83.6793 1025.12 86.7942L1027.95 83.9658C1025.2 81.214 1023.03 78.0149 1021.44 74.3538L1017.77 75.9462ZM1025.16 86.8291C1028.35 89.8665 1032.05 92.2375 1036.23 93.9422L1037.74 90.2378C1034.01 88.7158 1030.74 86.6135 1027.92 83.9309L1025.16 86.8291ZM1036.27 93.9584C1040.55 95.5927 1045.16 96.4 1050.08 96.4V92.4C1045.61 92.4 1041.49 91.6673 1037.7 90.2216L1036.27 93.9584ZM1050.08 96.4C1054.68 96.4 1059.04 95.709 1063.15 94.3138L1061.86 90.5262C1058.2 91.771 1054.27 92.4 1050.08 92.4V96.4ZM1063.14 94.3174C1067.4 92.8956 1071.29 90.4939 1074.78 87.156L1072.02 84.264C1068.91 87.2328 1065.53 89.3044 1061.87 90.5226L1063.14 94.3174ZM1071.8 86.91L1076.42 93.07L1079.62 90.67L1075 84.51L1071.8 86.91ZM1076.7 90.3686C1073.24 93.4117 1069.18 95.7411 1064.5 97.3484L1065.8 101.132C1070.94 99.3655 1075.46 96.7816 1079.34 93.3714L1076.7 90.3686ZM1064.52 97.3398C1059.82 98.8847 1054.9 99.66 1049.75 99.66V103.66C1055.3 103.66 1060.65 102.822 1065.77 101.14L1064.52 97.3398ZM1072.21 90.88V62.5H1068.21V90.88H1072.21ZM1070.21 64.5H1078.02V60.5H1070.21V64.5ZM1076.02 62.5V91.87H1080.02V62.5H1076.02ZM1078.27 89.8859L1070.46 88.8959L1069.96 92.8641L1077.77 93.8541L1078.27 89.8859ZM1093.13 101L1091.32 100.168L1090.02 103H1093.13V101ZM1128.33 24V22H1127.05L1126.52 23.1685L1128.33 24ZM1136.36 24L1138.18 23.1685L1137.65 22H1136.36V24ZM1171.56 101V103H1174.68L1173.38 100.168L1171.56 101ZM1162.98 101L1161.16 101.817L1161.69 103H1162.98V101ZM1130.64 28.73V26.73H1127.56L1128.82 29.5469L1130.64 28.73ZM1133.94 28.73L1135.77 29.5469L1137.03 26.73H1133.94V28.73ZM1101.6 101V103H1102.9L1103.43 101.817L1101.6 101ZM1106.99 80.43L1105.12 79.7415L1104.13 82.43H1106.99V80.43ZM1109.41 73.83V71.83H1108.02L1107.54 73.1415L1109.41 73.83ZM1154.18 73.83L1156.06 73.1415L1155.58 71.83H1154.18V73.83ZM1156.6 80.43V82.43H1159.47L1158.48 79.7415L1156.6 80.43ZM1094.95 101.832L1130.15 24.8315L1126.52 23.1685L1091.32 100.168L1094.95 101.832ZM1128.33 26H1136.36V22H1128.33V26ZM1134.55 24.8315L1169.75 101.832L1173.38 100.168L1138.18 23.1685L1134.55 24.8315ZM1171.56 99H1162.98V103H1171.56V99ZM1164.81 100.183L1132.47 27.9131L1128.82 29.5469L1161.16 101.817L1164.81 100.183ZM1130.64 30.73H1133.94V26.73H1130.64V30.73ZM1132.12 27.9131L1099.78 100.183L1103.43 101.817L1135.77 29.5469L1132.12 27.9131ZM1101.6 99H1093.13V103H1101.6V99ZM1108.87 81.1185L1111.29 74.5185L1107.54 73.1415L1105.12 79.7415L1108.87 81.1185ZM1109.41 75.83H1154.18V71.83H1109.41V75.83ZM1152.31 74.5185L1154.73 81.1185L1158.48 79.7415L1156.06 73.1415L1152.31 74.5185ZM1156.6 78.43H1106.99V82.43H1156.6V78.43ZM1188.7 101H1186.7V103H1188.7V101ZM1188.7 24V22H1186.7V24H1188.7ZM1196.84 24H1198.84V22H1196.84V24ZM1196.84 101V103H1198.84V101H1196.84ZM1190.7 101V24H1186.7V101H1190.7ZM1188.7 26H1196.84V22H1188.7V26ZM1194.84 24V101H1198.84V24H1194.84ZM1196.84 99H1188.7V103H1196.84V99ZM1226.3 101H1224.3V103H1226.3V101ZM1226.3 24V22H1224.3V24H1226.3ZM1233.01 24L1234.57 22.756L1233.97 22H1233.01V24ZM1286.14 90.88V92.88H1290.28L1287.7 89.636L1286.14 90.88ZM1282.62 90.88H1280.62V92.88H1282.62V90.88ZM1282.62 24V22H1280.62V24H1282.62ZM1290.65 24H1292.65V22H1290.65V24ZM1290.65 101V103H1292.65V101H1290.65ZM1283.94 101L1282.37 102.242L1282.97 103H1283.94V101ZM1230.92 34.12V32.12H1226.78L1229.35 35.3625L1230.92 34.12ZM1234.44 34.12H1236.44V32.12H1234.44V34.12ZM1234.44 101V103H1236.44V101H1234.44ZM1228.3 101V24H1224.3V101H1228.3ZM1226.3 26H1233.01V22H1226.3V26ZM1231.44 25.244L1284.57 92.124L1287.7 89.636L1234.57 22.756L1231.44 25.244ZM1286.14 88.88H1282.62V92.88H1286.14V88.88ZM1284.62 90.88V24H1280.62V90.88H1284.62ZM1282.62 26H1290.65V22H1282.62V26ZM1288.65 24V101H1292.65V24H1288.65ZM1290.65 99H1283.94V103H1290.65V99ZM1285.5 99.7575L1232.48 32.8775L1229.35 35.3625L1282.37 102.242L1285.5 99.7575ZM1230.92 36.12H1234.44V32.12H1230.92V36.12ZM1232.44 34.12V101H1236.44V34.12H1232.44ZM1234.44 99H1226.3V103H1234.44V99Z" fill="url(#paint1_linear_1107_697)"/>
</g>
<defs>
<filter id="filter0_d_1107_697" x="0.719971" y="0.340088" width="1312.93" height="124.32" filterUnits="userSpaceOnUse" color-interpolation-filters="sRGB">
<feFlood flood-opacity="0" result="BackgroundImageFix"/>
<feColorMatrix in="SourceAlpha" type="matrix" values="0 0 0 0 0 0 0 0 0 0 0 0 0 0 0 0 0 0 127 0" result="hardAlpha"/>
<feOffset/>
<feGaussianBlur stdDeviation="11.5"/>
<feComposite in2="hardAlpha" operator="out"/>
<feColorMatrix type="matrix" values="0 0 0 0 0.894118 0 0 0 0 0.756863 0 0 0 0 0.447059 0 0 0 0.23 0"/>
<feBlend mode="normal" in2="BackgroundImageFix" result="effect1_dropShadow_1107_697"/>
<feBlend mode="normal" in="SourceGraphic" in2="effect1_dropShadow_1107_697" result="shape"/>
</filter>
<linearGradient id="paint0_linear_1107_697" x1="661" y1="18.5714" x2="661" y2="96.7429" gradientUnits="userSpaceOnUse">
<stop stop-color="#FAFFF3"/>
<stop offset="0.270481" stop-color="#E8C473"/>
<stop offset="0.435804" stop-color="#D9B568"/>
<stop offset="0.476216" stop-color="#C49013"/>
<stop offset="0.626842" stop-color="#E6D76D"/>
<stop offset="0.814873" stop-color="white"/>
<stop offset="1" stop-color="#DBB554"/>
</linearGradient>
<linearGradient id="paint1_linear_1107_697" x1="617.335" y1="14" x2="618.522" y2="96.7662" gradientUnits="userSpaceOnUse">
<stop stop-color="#755F22"/>
<stop offset="0.519449" stop-color="white"/>
<stop offset="1" stop-color="#77632A"/>
</linearGradient>
</defs>
</svg>
