<svg width="335" height="249" viewBox="0 0 335 249" fill="none" xmlns="http://www.w3.org/2000/svg">
<g filter="url(#filter0_d_1107_701)">
<path d="M43.232 150V131.28L44.456 134.592L23.072 99.6H28.76L47.552 130.344H44.528L63.32 99.6H68.648L47.264 134.592L48.488 131.28V150H43.232ZM101.803 150.432C98.0114 150.432 94.4834 149.808 91.2194 148.56C88.0034 147.264 85.1954 145.464 82.7954 143.16C80.4434 140.808 78.5954 138.096 77.2514 135.024C75.9554 131.904 75.3074 128.496 75.3074 124.8C75.3074 121.104 75.9554 117.72 77.2514 114.648C78.5954 111.528 80.4434 108.816 82.7954 106.512C85.1954 104.16 88.0034 102.36 91.2194 101.112C94.4354 99.816 97.9634 99.168 101.803 99.168C105.595 99.168 109.099 99.816 112.315 101.112C115.531 102.36 118.315 104.136 120.667 106.44C123.067 108.744 124.915 111.456 126.211 114.576C127.555 117.696 128.227 121.104 128.227 124.8C128.227 128.496 127.555 131.904 126.211 135.024C124.915 138.144 123.067 140.856 120.667 143.16C118.315 145.464 115.531 147.264 112.315 148.56C109.099 149.808 105.595 150.432 101.803 150.432ZM101.803 145.68C104.827 145.68 107.611 145.176 110.155 144.168C112.747 143.112 114.979 141.648 116.851 139.776C118.771 137.856 120.259 135.648 121.315 133.152C122.371 130.608 122.899 127.824 122.899 124.8C122.899 121.776 122.371 119.016 121.315 116.52C120.259 113.976 118.771 111.768 116.851 109.896C114.979 107.976 112.747 106.512 110.155 105.504C107.611 104.448 104.827 103.92 101.803 103.92C98.7794 103.92 95.9714 104.448 93.3794 105.504C90.7874 106.512 88.5314 107.976 86.6114 109.896C84.7394 111.768 83.2514 113.976 82.1474 116.52C81.0914 119.016 80.5634 121.776 80.5634 124.8C80.5634 127.776 81.0914 130.536 82.1474 133.08C83.2514 135.624 84.7394 137.856 86.6114 139.776C88.5314 141.648 90.7874 143.112 93.3794 144.168C95.9714 145.176 98.7794 145.68 101.803 145.68ZM165.514 150.432C159.082 150.432 154.018 148.584 150.322 144.888C146.626 141.192 144.778 135.72 144.778 128.472V99.6H150.106V128.256C150.106 134.208 151.45 138.6 154.138 141.432C156.826 144.264 160.618 145.68 165.514 145.68C170.458 145.68 174.274 144.264 176.962 141.432C179.65 138.6 180.994 134.208 180.994 128.256V99.6H186.178V128.472C186.178 135.72 184.33 141.192 180.634 144.888C176.986 148.584 171.946 150.432 165.514 150.432ZM207.273 150V99.6H211.665L246.441 143.376H244.137V99.6H249.393V150H245.001L210.297 106.224H212.601V150H207.273ZM292.988 150.432C289.148 150.432 285.596 149.808 282.332 148.56C279.116 147.264 276.308 145.464 273.908 143.16C271.556 140.856 269.708 138.144 268.364 135.024C267.068 131.904 266.42 128.496 266.42 124.8C266.42 121.104 267.068 117.696 268.364 114.576C269.708 111.456 271.58 108.744 273.98 106.44C276.38 104.136 279.188 102.36 282.404 101.112C285.668 99.816 289.22 99.168 293.06 99.168C296.9 99.168 300.404 99.768 303.572 100.968C306.788 102.168 309.524 103.992 311.78 106.44L308.468 109.824C306.356 107.712 304.028 106.2 301.484 105.288C298.94 104.376 296.204 103.92 293.276 103.92C290.156 103.92 287.276 104.448 284.636 105.504C282.044 106.512 279.764 107.976 277.796 109.896C275.876 111.768 274.364 113.976 273.26 116.52C272.204 119.016 271.676 121.776 271.676 124.8C271.676 127.776 272.204 130.536 273.26 133.08C274.364 135.624 275.876 137.856 277.796 139.776C279.764 141.648 282.044 143.112 284.636 144.168C287.276 145.176 290.132 145.68 293.204 145.68C296.084 145.68 298.796 145.248 301.34 144.384C303.932 143.52 306.308 142.056 308.468 139.992L311.492 144.024C309.092 146.136 306.284 147.744 303.068 148.848C299.852 149.904 296.492 150.432 292.988 150.432ZM306.38 143.376V124.8H311.492V144.024L306.38 143.376Z" fill="url(#paint0_linear_1107_701)"/>
<path d="M43.232 150H41.232V152H43.232V150ZM43.232 131.28L45.108 130.587L41.232 131.28H43.232ZM44.456 134.592L42.7494 135.635L46.332 133.899L44.456 134.592ZM23.072 99.6V97.6H19.5059L21.3654 100.643L23.072 99.6ZM28.76 99.6L30.4665 98.5569L29.8815 97.6H28.76V99.6ZM47.552 130.344V132.344H51.1185L49.2585 129.301L47.552 130.344ZM44.528 130.344L42.8215 129.301L40.9615 132.344H44.528V130.344ZM63.32 99.6V97.6H62.1985L61.6135 98.5569L63.32 99.6ZM68.648 99.6L70.3546 100.643L72.2141 97.6H68.648V99.6ZM47.264 134.592L45.388 133.899L48.9706 135.635L47.264 134.592ZM48.488 131.28H50.488L46.612 130.587L48.488 131.28ZM48.488 150V152H50.488V150H48.488ZM45.232 150V131.28H41.232V150H45.232ZM41.356 131.973L42.58 135.285L46.332 133.899L45.108 130.587L41.356 131.973ZM46.1626 133.549L24.7786 98.5571L21.3654 100.643L42.7494 135.635L46.1626 133.549ZM23.072 101.6H28.76V97.6H23.072V101.6ZM27.0535 100.643L45.8455 131.387L49.2585 129.301L30.4665 98.5569L27.0535 100.643ZM47.552 128.344H44.528V132.344H47.552V128.344ZM46.2345 131.387L65.0265 100.643L61.6135 98.5569L42.8215 129.301L46.2345 131.387ZM63.32 101.6H68.648V97.6H63.32V101.6ZM66.9414 98.5571L45.5574 133.549L48.9706 135.635L70.3546 100.643L66.9414 98.5571ZM49.14 135.285L50.364 131.973L46.612 130.587L45.388 133.899L49.14 135.285ZM46.488 131.28V150H50.488V131.28H46.488ZM48.488 148H43.232V152H48.488V148ZM91.2194 148.56L90.4719 150.415L90.4885 150.422L90.5052 150.428L91.2194 148.56ZM82.7954 143.16L81.3812 144.574L81.3957 144.589L81.4104 144.603L82.7954 143.16ZM77.2514 135.024L75.4044 135.791L75.4116 135.808L75.4191 135.826L77.2514 135.024ZM77.2514 114.648L75.4146 113.857L75.4116 113.864L75.4087 113.871L77.2514 114.648ZM82.7954 106.512L84.195 107.941L84.1953 107.94L82.7954 106.512ZM91.2194 101.112L91.943 102.977L91.955 102.972L91.967 102.967L91.2194 101.112ZM112.315 101.112L111.568 102.967L111.58 102.972L111.592 102.977L112.315 101.112ZM120.667 106.44L119.268 107.869L119.275 107.876L119.282 107.883L120.667 106.44ZM126.211 114.576L124.364 115.343L124.369 115.355L124.375 115.367L126.211 114.576ZM126.211 135.024L124.375 134.233L124.369 134.245L124.364 134.257L126.211 135.024ZM120.667 143.16L119.282 141.717L119.275 141.724L119.268 141.731L120.667 143.16ZM112.315 148.56L113.039 150.425L113.051 150.42L113.063 150.415L112.315 148.56ZM110.155 144.168L110.892 146.027L110.901 146.024L110.91 146.02L110.155 144.168ZM116.851 139.776L115.437 138.362L116.851 139.776ZM121.315 133.152L123.157 133.931L123.163 133.919L121.315 133.152ZM121.315 116.52L119.468 117.287L119.474 117.299L121.315 116.52ZM116.851 109.896L115.419 111.292L115.437 111.31L115.455 111.328L116.851 109.896ZM110.155 105.504L109.389 107.351L109.41 107.36L109.431 107.368L110.155 105.504ZM93.3794 105.504L94.1043 107.368L94.1192 107.362L94.134 107.356L93.3794 105.504ZM86.6114 109.896L85.1972 108.482L85.1972 108.482L86.6114 109.896ZM82.1474 116.52L80.3127 115.724L80.3091 115.732L80.3055 115.741L82.1474 116.52ZM82.1474 133.08L80.3003 133.847L80.3064 133.862L80.3127 133.876L82.1474 133.08ZM86.6114 139.776L85.1794 141.172L85.1971 141.19L85.2152 141.208L86.6114 139.776ZM93.3794 144.168L92.6248 146.02L92.6396 146.026L92.6545 146.032L93.3794 144.168ZM101.803 148.432C98.2347 148.432 94.951 147.846 91.9337 146.692L90.5052 150.428C94.0159 151.77 97.7882 152.432 101.803 152.432V148.432ZM91.967 146.705C88.9777 145.5 86.3885 143.837 84.1805 141.717L81.4104 144.603C84.0024 147.091 87.0292 149.028 90.4719 150.415L91.967 146.705ZM84.2097 141.746C82.0354 139.572 80.3286 137.068 79.0838 134.222L75.4191 135.826C76.8623 139.124 78.8514 142.044 81.3812 144.574L84.2097 141.746ZM79.0984 134.257C77.9126 131.402 77.3074 128.258 77.3074 124.8H73.3074C73.3074 128.734 73.9983 132.406 75.4044 135.791L79.0984 134.257ZM77.3074 124.8C77.3074 121.342 77.9127 118.226 79.0942 115.425L75.4087 113.871C73.9982 117.214 73.3074 120.866 73.3074 124.8H77.3074ZM79.0883 115.439C80.3327 112.55 82.0348 110.057 84.195 107.941L81.3959 105.083C78.8521 107.575 76.8582 110.506 75.4146 113.857L79.0883 115.439ZM84.1953 107.94C86.3965 105.783 88.9728 104.129 91.943 102.977L90.4959 99.2475C87.0341 100.591 83.9943 102.537 81.3956 105.084L84.1953 107.94ZM91.967 102.967C94.9211 101.777 98.1921 101.168 101.803 101.168V97.168C97.7348 97.168 93.9498 97.8554 90.4719 99.257L91.967 102.967ZM101.803 101.168C105.363 101.168 108.611 101.775 111.568 102.967L113.063 99.257C109.588 97.8566 105.828 97.168 101.803 97.168V101.168ZM111.592 102.977C114.568 104.131 117.119 105.763 119.268 107.869L122.067 105.011C119.512 102.509 116.495 100.589 113.039 99.2475L111.592 102.977ZM119.282 107.883C121.48 109.993 123.173 112.474 124.364 115.343L128.058 113.809C126.658 110.438 124.655 107.495 122.053 104.997L119.282 107.883ZM124.375 115.367C125.602 118.216 126.227 121.352 126.227 124.8H130.227C130.227 120.856 129.509 117.176 128.048 113.785L124.375 115.367ZM126.227 124.8C126.227 128.248 125.602 131.384 124.375 134.233L128.048 135.815C129.509 132.424 130.227 128.744 130.227 124.8H126.227ZM124.364 134.257C123.173 137.126 121.48 139.607 119.282 141.717L122.053 144.603C124.655 142.105 126.658 139.162 128.058 135.791L124.364 134.257ZM119.268 141.731C117.113 143.842 114.554 145.502 111.568 146.705L113.063 150.415C116.509 149.026 119.518 147.086 122.067 144.589L119.268 141.731ZM111.592 146.695C108.628 147.845 105.373 148.432 101.803 148.432V152.432C105.818 152.432 109.57 151.771 113.039 150.425L111.592 146.695ZM101.803 147.68C105.053 147.68 108.09 147.138 110.892 146.027L109.419 142.309C107.133 143.214 104.602 143.68 101.803 143.68V147.68ZM110.91 146.02C113.735 144.869 116.195 143.261 118.266 141.19L115.437 138.362C113.764 140.035 111.76 141.355 109.401 142.316L110.91 146.02ZM118.266 141.19C120.367 139.088 122.001 136.665 123.157 133.931L119.474 132.373C118.518 134.631 117.175 136.624 115.437 138.362L118.266 141.19ZM123.163 133.919C124.329 131.109 124.899 128.061 124.899 124.8H120.899C120.899 127.587 120.414 130.107 119.468 132.385L123.163 133.919ZM124.899 124.8C124.899 121.539 124.329 118.51 123.157 115.741L119.474 117.299C120.414 119.522 120.899 122.013 120.899 124.8H124.899ZM123.163 115.753C122.006 112.966 120.367 110.53 118.248 108.464L115.455 111.328C117.176 113.006 118.513 114.986 119.468 117.287L123.163 115.753ZM118.283 108.5C116.204 106.367 113.729 104.748 110.88 103.64L109.431 107.368C111.766 108.276 113.754 109.585 115.419 111.292L118.283 108.5ZM110.922 103.657C108.112 102.49 105.065 101.92 101.803 101.92V105.92C104.59 105.92 107.111 106.406 109.389 107.351L110.922 103.657ZM101.803 101.92C98.5417 101.92 95.4751 102.491 92.6248 103.652L94.134 107.356C96.4677 106.405 99.0172 105.92 101.803 105.92V101.92ZM92.6545 103.64C89.8105 104.746 87.3182 106.361 85.1972 108.482L88.0257 111.31C89.7447 109.591 91.7644 108.278 94.1043 107.368L92.6545 103.64ZM85.1972 108.482C83.1391 110.54 81.512 112.96 80.3127 115.724L83.9821 117.316C84.9909 114.992 86.3398 112.996 88.0257 111.31L85.1972 108.482ZM80.3055 115.741C79.1337 118.51 78.5634 121.539 78.5634 124.8H82.5634C82.5634 122.013 83.0491 119.522 83.9894 117.299L80.3055 115.741ZM78.5634 124.8C78.5634 128.018 79.1355 131.041 80.3003 133.847L83.9946 132.313C83.0474 130.031 82.5634 127.534 82.5634 124.8H78.5634ZM80.3127 133.876C81.5101 136.635 83.1321 139.072 85.1794 141.172L88.0434 138.38C86.3468 136.64 84.9928 134.613 83.9821 132.284L80.3127 133.876ZM85.2152 141.208C87.328 143.268 89.8045 144.871 92.6248 146.02L94.134 142.316C91.7704 141.353 89.7348 140.028 88.0076 138.344L85.2152 141.208ZM92.6545 146.032C95.4971 147.137 98.5532 147.68 101.803 147.68V143.68C99.0057 143.68 96.4458 143.215 94.1043 142.304L92.6545 146.032ZM150.322 144.888L148.908 146.302L150.322 144.888ZM144.778 99.6V97.6H142.778V99.6H144.778ZM150.106 99.6H152.106V97.6H150.106V99.6ZM180.994 99.6V97.6H178.994V99.6H180.994ZM186.178 99.6H188.178V97.6H186.178V99.6ZM180.634 144.888L179.22 143.474L179.21 143.483L180.634 144.888ZM165.514 148.432C159.482 148.432 154.974 146.712 151.736 143.474L148.908 146.302C153.062 150.456 158.681 152.432 165.514 152.432V148.432ZM151.736 143.474C148.541 140.278 146.778 135.398 146.778 128.472H142.778C142.778 136.042 144.711 142.106 148.908 146.302L151.736 143.474ZM146.778 128.472V99.6H142.778V128.472H146.778ZM144.778 101.6H150.106V97.6H144.778V101.6ZM148.106 99.6V128.256H152.106V99.6H148.106ZM148.106 128.256C148.106 134.459 149.5 139.451 152.687 142.809L155.588 140.055C153.4 137.749 152.106 133.957 152.106 128.256H148.106ZM152.687 142.809C155.844 146.135 160.218 147.68 165.514 147.68V143.68C161.018 143.68 157.808 142.393 155.588 140.055L152.687 142.809ZM165.514 147.68C170.852 147.68 175.252 146.139 178.412 142.809L175.511 140.055C173.296 142.389 170.064 143.68 165.514 143.68V147.68ZM178.412 142.809C181.6 139.451 182.994 134.459 182.994 128.256H178.994C178.994 133.957 177.7 137.749 175.511 140.055L178.412 142.809ZM182.994 128.256V99.6H178.994V128.256H182.994ZM180.994 101.6H186.178V97.6H180.994V101.6ZM184.178 99.6V128.472H188.178V99.6H184.178ZM184.178 128.472C184.178 135.398 182.415 140.278 179.22 143.474L182.048 146.302C186.245 142.106 188.178 136.042 188.178 128.472H184.178ZM179.21 143.483C176.024 146.712 171.546 148.432 165.514 148.432V152.432C172.345 152.432 177.948 150.456 182.057 146.293L179.21 143.483ZM207.273 150H205.273V152H207.273V150ZM207.273 99.6V97.6H205.273V99.6H207.273ZM211.665 99.6L213.231 98.356L212.631 97.6H211.665V99.6ZM246.441 143.376V145.376H250.584L248.007 142.132L246.441 143.376ZM244.137 143.376H242.137V145.376H244.137V143.376ZM244.137 99.6V97.6H242.137V99.6H244.137ZM249.393 99.6H251.393V97.6H249.393V99.6ZM249.393 150V152H251.393V150H249.393ZM245.001 150L243.434 151.242L244.035 152H245.001V150ZM210.297 106.224V104.224H206.16L208.73 107.466L210.297 106.224ZM212.601 106.224H214.601V104.224H212.601V106.224ZM212.601 150V152H214.601V150H212.601ZM209.273 150V99.6H205.273V150H209.273ZM207.273 101.6H211.665V97.6H207.273V101.6ZM210.099 100.844L244.875 144.62L248.007 142.132L213.231 98.356L210.099 100.844ZM246.441 141.376H244.137V145.376H246.441V141.376ZM246.137 143.376V99.6H242.137V143.376H246.137ZM244.137 101.6H249.393V97.6H244.137V101.6ZM247.393 99.6V150H251.393V99.6H247.393ZM249.393 148H245.001V152H249.393V148ZM246.569 148.758L211.865 104.982L208.73 107.466L243.434 151.242L246.569 148.758ZM210.297 108.224H212.601V104.224H210.297V108.224ZM210.601 106.224V150H214.601V106.224H210.601ZM212.601 148H207.273V152H212.601V148ZM282.332 148.56L281.584 150.415L281.601 150.422L281.617 150.428L282.332 148.56ZM273.908 143.16L272.508 144.589L272.515 144.596L272.523 144.603L273.908 143.16ZM268.364 135.024L266.517 135.791L266.522 135.803L266.527 135.815L268.364 135.024ZM268.364 114.576L266.527 113.785L266.522 113.797L266.517 113.809L268.364 114.576ZM273.98 106.44L275.365 107.883L275.365 107.883L273.98 106.44ZM282.404 101.112L283.127 102.977L283.134 102.974L283.142 102.971L282.404 101.112ZM303.572 100.968L302.863 102.838L302.872 102.842L303.572 100.968ZM311.78 106.44L313.209 107.839L314.538 106.481L313.25 105.085L311.78 106.44ZM308.468 109.824L307.053 111.238L308.483 112.668L309.897 111.223L308.468 109.824ZM301.484 105.288L302.159 103.405L301.484 105.288ZM284.636 105.504L285.361 107.368L285.369 107.365L285.378 107.361L284.636 105.504ZM277.796 109.896L279.192 111.328L279.192 111.328L277.796 109.896ZM273.26 116.52L271.425 115.724L271.421 115.732L271.418 115.741L273.26 116.52ZM273.26 133.08L271.412 133.847L271.419 133.862L271.425 133.876L273.26 133.08ZM277.796 139.776L276.381 141.19L276.399 141.208L276.417 141.225L277.796 139.776ZM284.636 144.168L283.881 146.02L283.902 146.029L283.922 146.036L284.636 144.168ZM301.34 144.384L300.707 142.487L300.696 142.49L301.34 144.384ZM308.468 139.992L310.068 138.792L308.715 136.989L307.086 138.546L308.468 139.992ZM311.492 144.024L312.813 145.525L314.201 144.304L313.092 142.824L311.492 144.024ZM303.068 148.848L303.692 150.748L303.704 150.744L303.717 150.74L303.068 148.848ZM306.38 143.376H304.38V145.138L306.128 145.36L306.38 143.376ZM306.38 124.8V122.8H304.38V124.8H306.38ZM311.492 124.8H313.492V122.8H311.492V124.8ZM311.492 144.024L311.24 146.008L313.492 146.294V144.024H311.492ZM292.988 148.432C289.368 148.432 286.06 147.844 283.046 146.692L281.617 150.428C285.131 151.772 288.928 152.432 292.988 152.432V148.432ZM283.079 146.705C280.09 145.5 277.501 143.837 275.293 141.717L272.523 144.603C275.115 147.091 278.141 149.028 281.584 150.415L283.079 146.705ZM275.307 141.731C273.147 139.615 271.445 137.122 270.2 134.233L266.527 135.815C267.97 139.166 269.964 142.097 272.508 144.589L275.307 141.731ZM270.211 134.257C269.025 131.402 268.42 128.258 268.42 124.8H264.42C264.42 128.734 265.111 132.406 266.517 135.791L270.211 134.257ZM268.42 124.8C268.42 121.342 269.025 118.198 270.211 115.343L266.517 113.809C265.111 117.194 264.42 120.866 264.42 124.8H268.42ZM270.2 115.367C271.441 112.487 273.161 109.998 275.365 107.883L272.595 104.997C269.998 107.49 267.974 110.425 266.527 113.785L270.2 115.367ZM275.365 107.883C277.567 105.768 280.148 104.133 283.127 102.977L281.68 99.2475C278.227 100.587 275.192 102.504 272.595 104.997L275.365 107.883ZM283.142 102.971C286.15 101.776 289.449 101.168 293.06 101.168V97.168C288.991 97.168 285.186 97.8555 281.666 99.2532L283.142 102.971ZM293.06 101.168C296.69 101.168 299.95 101.735 302.863 102.838L304.28 99.0977C300.858 97.8013 297.11 97.168 293.06 97.168V101.168ZM302.872 102.842C305.804 103.936 308.273 105.586 310.309 107.795L313.25 105.085C310.775 102.398 307.772 100.4 304.271 99.0942L302.872 102.842ZM310.35 105.041L307.038 108.425L309.897 111.223L313.209 107.839L310.35 105.041ZM309.882 108.41C307.583 106.111 305.009 104.427 302.159 103.405L300.809 107.171C303.047 107.973 305.128 109.313 307.053 111.238L309.882 108.41ZM302.159 103.405C299.381 102.409 296.414 101.92 293.276 101.92V105.92C295.993 105.92 298.499 106.343 300.809 107.171L302.159 103.405ZM293.276 101.92C289.926 101.92 286.791 102.488 283.893 103.647L285.378 107.361C287.76 106.408 290.385 105.92 293.276 105.92V101.92ZM283.911 103.64C281.071 104.744 278.562 106.354 276.399 108.464L279.192 111.328C280.965 109.598 283.016 108.28 285.361 107.368L283.911 103.64ZM276.399 108.464C274.287 110.524 272.629 112.95 271.425 115.724L275.094 117.316C276.098 115.002 277.464 113.012 279.192 111.328L276.399 108.464ZM271.418 115.741C270.246 118.51 269.676 121.539 269.676 124.8H273.676C273.676 122.013 274.161 119.522 275.102 117.299L271.418 115.741ZM269.676 124.8C269.676 128.018 270.248 131.041 271.412 133.847L275.107 132.313C274.16 130.031 273.676 127.534 273.676 124.8H269.676ZM271.425 133.876C272.627 136.646 274.28 139.089 276.381 141.19L279.21 138.362C277.471 136.623 276.1 134.602 275.094 132.284L271.425 133.876ZM276.417 141.225C278.572 143.275 281.065 144.873 283.881 146.02L285.39 142.316C283.022 141.351 280.956 140.021 279.174 138.327L276.417 141.225ZM283.922 146.036C286.809 147.139 289.909 147.68 293.204 147.68V143.68C290.354 143.68 287.742 143.213 285.349 142.3L283.922 146.036ZM293.204 147.68C296.287 147.68 299.217 147.217 301.983 146.278L300.696 142.49C298.374 143.279 295.881 143.68 293.204 143.68V147.68ZM301.972 146.281C304.869 145.316 307.496 143.687 309.849 141.438L307.086 138.546C305.119 140.425 302.994 141.724 300.707 142.487L301.972 146.281ZM306.868 141.192L309.892 145.224L313.092 142.824L310.068 138.792L306.868 141.192ZM310.17 142.523C307.979 144.451 305.403 145.932 302.418 146.956L303.717 150.74C307.164 149.556 310.204 147.821 312.813 145.525L310.17 142.523ZM302.444 146.948C299.436 147.935 296.287 148.432 292.988 148.432V152.432C296.696 152.432 300.267 151.873 303.692 150.748L302.444 146.948ZM308.38 143.376V124.8H304.38V143.376H308.38ZM306.38 126.8H311.492V122.8H306.38V126.8ZM309.492 124.8V144.024H313.492V124.8H309.492ZM311.743 142.04L306.631 141.392L306.128 145.36L311.24 146.008L311.743 142.04Z" fill="url(#paint1_linear_1107_701)"/>
</g>
<g filter="url(#filter1_d_1107_701)">
<path d="M81.816 211.536H53.736L47.688 225H42.144L65.184 174.6H70.44L93.48 225H87.864L81.816 211.536ZM79.872 207.216L67.776 180.144L55.68 207.216H79.872ZM141.65 199.8H146.762V219.024C144.41 221.088 141.626 222.672 138.41 223.776C135.194 224.88 131.81 225.432 128.258 225.432C123.218 225.432 118.682 224.328 114.65 222.12C110.618 219.912 107.45 216.864 105.146 212.976C102.842 209.04 101.69 204.648 101.69 199.8C101.69 194.952 102.842 190.584 105.146 186.696C107.45 182.76 110.618 179.688 114.65 177.48C118.682 175.272 123.242 174.168 128.33 174.168C132.17 174.168 135.698 174.792 138.914 176.04C142.13 177.24 144.842 179.04 147.05 181.44L143.738 184.824C139.754 180.888 134.69 178.92 128.546 178.92C124.466 178.92 120.77 179.832 117.458 181.656C114.194 183.432 111.626 185.928 109.754 189.144C107.882 192.312 106.946 195.864 106.946 199.8C106.946 203.736 107.882 207.288 109.754 210.456C111.626 213.624 114.194 216.12 117.458 217.944C120.722 219.768 124.394 220.68 128.474 220.68C133.658 220.68 138.05 219.384 141.65 216.792V199.8ZM198.49 211.536H170.41L164.362 225H158.818L181.858 174.6H187.114L210.154 225H204.538L198.49 211.536ZM196.546 207.216L184.45 180.144L172.354 207.216H196.546ZM223.531 174.6H228.859V225H223.531V174.6ZM292.418 174.6V225H288.026L255.626 184.104V225H250.298V174.6H254.69L287.162 215.496V174.6H292.418Z" fill="url(#paint2_linear_1107_701)"/>
<path d="M81.816 211.536L83.6404 210.716L83.1101 209.536H81.816V211.536ZM53.736 211.536V209.536H52.4419L51.9116 210.716L53.736 211.536ZM47.688 225V227H48.9821L49.5124 225.82L47.688 225ZM42.144 225L40.3251 224.168L39.0306 227H42.144V225ZM65.184 174.6V172.6H63.8992L63.3651 173.768L65.184 174.6ZM70.44 174.6L72.2589 173.768L71.7248 172.6H70.44V174.6ZM93.48 225V227H96.5934L95.299 224.168L93.48 225ZM87.864 225L86.0396 225.82L86.5699 227H87.864V225ZM79.872 207.216V209.216H82.9562L81.698 206.4L79.872 207.216ZM67.776 180.144L69.602 179.328L67.776 175.241L65.95 179.328L67.776 180.144ZM55.68 207.216L53.854 206.4L52.5958 209.216H55.68V207.216ZM81.816 209.536H53.736V213.536H81.816V209.536ZM51.9116 210.716L45.8636 224.18L49.5124 225.82L55.5604 212.356L51.9116 210.716ZM47.688 223H42.144V227H47.688V223ZM43.9629 225.832L67.003 175.432L63.3651 173.768L40.3251 224.168L43.9629 225.832ZM65.184 176.6H70.44V172.6H65.184V176.6ZM68.6211 175.432L91.6611 225.832L95.299 224.168L72.2589 173.768L68.6211 175.432ZM93.48 223H87.864V227H93.48V223ZM89.6884 224.18L83.6404 210.716L79.9916 212.356L86.0396 225.82L89.6884 224.18ZM81.698 206.4L69.602 179.328L65.95 180.96L78.046 208.032L81.698 206.4ZM65.95 179.328L53.854 206.4L57.506 208.032L69.602 180.96L65.95 179.328ZM55.68 209.216H79.872V205.216H55.68V209.216ZM141.65 199.8V197.8H139.65V199.8H141.65ZM146.762 199.8H148.762V197.8H146.762V199.8ZM146.762 219.024L148.081 220.527L148.762 219.93V219.024H146.762ZM138.41 223.776L139.06 225.668L138.41 223.776ZM114.65 222.12L115.611 220.366L114.65 222.12ZM105.146 212.976L103.42 213.986L103.426 213.996L105.146 212.976ZM105.146 186.696L106.867 187.716L106.872 187.706L105.146 186.696ZM138.914 176.04L138.191 177.905L138.203 177.909L138.215 177.914L138.914 176.04ZM147.05 181.44L148.48 182.839L149.807 181.483L148.522 180.086L147.05 181.44ZM143.738 184.824L142.333 186.247L143.762 187.659L145.168 186.223L143.738 184.824ZM117.458 181.656L118.414 183.413L118.423 183.408L117.458 181.656ZM109.754 189.144L111.476 190.161L111.483 190.15L109.754 189.144ZM117.458 217.944L118.434 216.198L117.458 217.944ZM141.65 216.792L142.819 218.415L143.65 217.816V216.792H141.65ZM141.65 201.8H146.762V197.8H141.65V201.8ZM144.762 199.8V219.024H148.762V199.8H144.762ZM145.443 217.521C143.303 219.399 140.752 220.858 137.761 221.884L139.06 225.668C142.501 224.486 145.517 222.777 148.081 220.527L145.443 217.521ZM137.761 221.884C134.763 222.913 131.599 223.432 128.258 223.432V227.432C132.021 227.432 135.625 226.847 139.06 225.668L137.761 221.884ZM128.258 223.432C123.521 223.432 119.321 222.397 115.611 220.366L113.69 223.874C118.044 226.259 122.916 227.432 128.258 227.432V223.432ZM115.611 220.366C111.888 218.327 108.985 215.53 106.867 211.956L103.426 213.996C105.916 218.198 109.349 221.497 113.69 223.874L115.611 220.366ZM106.872 211.966C104.759 208.356 103.69 204.316 103.69 199.8H99.6903C99.6903 204.98 100.925 209.724 103.42 213.986L106.872 211.966ZM103.69 199.8C103.69 195.284 104.759 191.272 106.867 187.716L103.426 185.676C100.925 189.896 99.6903 194.62 99.6903 199.8H103.69ZM106.872 187.706C108.992 184.086 111.894 181.27 115.611 179.234L113.69 175.726C109.342 178.106 105.909 181.434 103.42 185.686L106.872 187.706ZM115.611 179.234C119.318 177.204 123.541 176.168 128.33 176.168V172.168C122.943 172.168 118.047 173.34 113.69 175.726L115.611 179.234ZM128.33 176.168C131.951 176.168 135.23 176.756 138.191 177.905L139.638 174.175C136.166 172.828 132.39 172.168 128.33 172.168V176.168ZM138.215 177.914C141.152 179.01 143.595 180.638 145.578 182.794L148.522 180.086C146.09 177.442 143.108 175.47 139.613 174.166L138.215 177.914ZM145.621 180.041L142.309 183.425L145.168 186.223L148.48 182.839L145.621 180.041ZM145.144 183.401C140.747 179.058 135.16 176.92 128.546 176.92V180.92C134.22 180.92 138.761 182.718 142.333 186.247L145.144 183.401ZM128.546 176.92C124.156 176.92 120.124 177.905 116.493 179.904L118.423 183.408C121.416 181.759 124.776 180.92 128.546 180.92V176.92ZM116.502 179.899C112.917 181.85 110.082 184.606 108.026 188.138L111.483 190.15C113.171 187.25 115.472 185.014 118.414 183.413L116.502 179.899ZM108.032 188.127C105.966 191.624 104.946 195.532 104.946 199.8H108.946C108.946 196.196 109.799 193 111.476 190.161L108.032 188.127ZM104.946 199.8C104.946 204.068 105.966 207.976 108.032 211.473L111.476 209.439C109.799 206.6 108.946 203.404 108.946 199.8H104.946ZM108.032 211.473C110.087 214.951 112.915 217.696 116.483 219.69L118.434 216.198C115.473 214.544 113.165 212.297 111.476 209.439L108.032 211.473ZM116.483 219.69C120.072 221.695 124.085 222.68 128.474 222.68V218.68C124.704 218.68 121.373 217.841 118.434 216.198L116.483 219.69ZM128.474 222.68C134.005 222.68 138.824 221.292 142.819 218.415L140.482 215.169C137.277 217.476 133.312 218.68 128.474 218.68V222.68ZM143.65 216.792V199.8H139.65V216.792H143.65ZM198.49 211.536L200.314 210.716L199.784 209.536H198.49V211.536ZM170.41 211.536V209.536H169.116L168.585 210.716L170.41 211.536ZM164.362 225V227H165.656L166.186 225.82L164.362 225ZM158.818 225L156.999 224.168L155.704 227H158.818V225ZM181.858 174.6V172.6H180.573L180.039 173.768L181.858 174.6ZM187.114 174.6L188.933 173.768L188.399 172.6H187.114V174.6ZM210.154 225V227H213.267L211.973 224.168L210.154 225ZM204.538 225L202.713 225.82L203.244 227H204.538V225ZM196.546 207.216V209.216H199.63L198.372 206.4L196.546 207.216ZM184.45 180.144L186.276 179.328L184.45 175.241L182.624 179.328L184.45 180.144ZM172.354 207.216L170.528 206.4L169.27 209.216H172.354V207.216ZM198.49 209.536H170.41V213.536H198.49V209.536ZM168.585 210.716L162.537 224.18L166.186 225.82L172.234 212.356L168.585 210.716ZM164.362 223H158.818V227H164.362V223ZM160.637 225.832L183.677 175.432L180.039 173.768L156.999 224.168L160.637 225.832ZM181.858 176.6H187.114V172.6H181.858V176.6ZM185.295 175.432L208.335 225.832L211.973 224.168L188.933 173.768L185.295 175.432ZM210.154 223H204.538V227H210.154V223ZM206.362 224.18L200.314 210.716L196.665 212.356L202.713 225.82L206.362 224.18ZM198.372 206.4L186.276 179.328L182.624 180.96L194.72 208.032L198.372 206.4ZM182.624 179.328L170.528 206.4L174.18 208.032L186.276 180.96L182.624 179.328ZM172.354 209.216H196.546V205.216H172.354V209.216ZM223.531 174.6V172.6H221.531V174.6H223.531ZM228.859 174.6H230.859V172.6H228.859V174.6ZM228.859 225V227H230.859V225H228.859ZM223.531 225H221.531V227H223.531V225ZM223.531 176.6H228.859V172.6H223.531V176.6ZM226.859 174.6V225H230.859V174.6H226.859ZM228.859 223H223.531V227H228.859V223ZM225.531 225V174.6H221.531V225H225.531ZM292.418 174.6H294.418V172.6H292.418V174.6ZM292.418 225V227H294.418V225H292.418ZM288.026 225L286.458 226.242L287.059 227H288.026V225ZM255.626 184.104L257.193 182.862L253.626 178.359V184.104H255.626ZM255.626 225V227H257.626V225H255.626ZM250.298 225H248.298V227H250.298V225ZM250.298 174.6V172.6H248.298V174.6H250.298ZM254.69 174.6L256.256 173.356L255.655 172.6H254.69V174.6ZM287.162 215.496L285.595 216.74L289.162 221.231V215.496H287.162ZM287.162 174.6V172.6H285.162V174.6H287.162ZM290.418 174.6V225H294.418V174.6H290.418ZM292.418 223H288.026V227H292.418V223ZM289.593 223.758L257.193 182.862L254.058 185.346L286.458 226.242L289.593 223.758ZM253.626 184.104V225H257.626V184.104H253.626ZM255.626 223H250.298V227H255.626V223ZM252.298 225V174.6H248.298V225H252.298ZM250.298 176.6H254.69V172.6H250.298V176.6ZM253.123 175.844L285.595 216.74L288.728 214.252L256.256 173.356L253.123 175.844ZM289.162 215.496V174.6H285.162V215.496H289.162ZM287.162 176.6H292.418V172.6H287.162V176.6Z" fill="url(#paint3_linear_1107_701)"/>
</g>
<g filter="url(#filter2_d_1107_701)">
<path d="M70.312 74.432C66.472 74.432 62.92 73.808 59.656 72.56C56.44 71.264 53.632 69.464 51.232 67.16C48.88 64.856 47.032 62.144 45.688 59.024C44.392 55.904 43.744 52.496 43.744 48.8C43.744 45.104 44.392 41.696 45.688 38.576C47.032 35.456 48.904 32.744 51.304 30.44C53.704 28.136 56.512 26.36 59.728 25.112C62.992 23.816 66.544 23.168 70.384 23.168C74.224 23.168 77.728 23.768 80.896 24.968C84.112 26.168 86.848 27.992 89.104 30.44L85.792 33.824C83.68 31.712 81.352 30.2 78.808 29.288C76.264 28.376 73.528 27.92 70.6 27.92C67.48 27.92 64.6 28.448 61.96 29.504C59.368 30.512 57.088 31.976 55.12 33.896C53.2 35.768 51.688 37.976 50.584 40.52C49.528 43.016 49 45.776 49 48.8C49 51.776 49.528 54.536 50.584 57.08C51.688 59.624 53.2 61.856 55.12 63.776C57.088 65.648 59.368 67.112 61.96 68.168C64.6 69.176 67.456 69.68 70.528 69.68C73.408 69.68 76.12 69.248 78.664 68.384C81.256 67.52 83.632 66.056 85.792 63.992L88.816 68.024C86.416 70.136 83.608 71.744 80.392 72.848C77.176 73.904 73.816 74.432 70.312 74.432ZM83.704 67.376V48.8H88.816V68.024L83.704 67.376ZM108.936 74V23.6H127.8C132.072 23.6 135.744 24.296 138.816 25.688C141.888 27.032 144.24 29 145.872 31.592C147.552 34.136 148.392 37.232 148.392 40.88C148.392 44.432 147.552 47.504 145.872 50.096C144.24 52.64 141.888 54.608 138.816 56C135.744 57.344 132.072 58.016 127.8 58.016H111.888L114.264 55.568V74H108.936ZM143.352 74L130.392 55.712H136.152L149.184 74H143.352ZM114.264 56L111.888 53.48H127.656C132.696 53.48 136.512 52.376 139.104 50.168C141.744 47.96 143.064 44.864 143.064 40.88C143.064 36.848 141.744 33.728 139.104 31.52C136.512 29.312 132.696 28.208 127.656 28.208H111.888L114.264 25.688V56ZM188.039 74.432C184.247 74.432 180.719 73.808 177.455 72.56C174.239 71.264 171.431 69.464 169.031 67.16C166.679 64.808 164.831 62.096 163.487 59.024C162.191 55.904 161.543 52.496 161.543 48.8C161.543 45.104 162.191 41.72 163.487 38.648C164.831 35.528 166.679 32.816 169.031 30.512C171.431 28.16 174.239 26.36 177.455 25.112C180.671 23.816 184.199 23.168 188.039 23.168C191.831 23.168 195.335 23.816 198.551 25.112C201.767 26.36 204.551 28.136 206.903 30.44C209.303 32.744 211.151 35.456 212.447 38.576C213.791 41.696 214.463 45.104 214.463 48.8C214.463 52.496 213.791 55.904 212.447 59.024C211.151 62.144 209.303 64.856 206.903 67.16C204.551 69.464 201.767 71.264 198.551 72.56C195.335 73.808 191.831 74.432 188.039 74.432ZM188.039 69.68C191.063 69.68 193.847 69.176 196.391 68.168C198.983 67.112 201.215 65.648 203.087 63.776C205.007 61.856 206.495 59.648 207.551 57.152C208.607 54.608 209.135 51.824 209.135 48.8C209.135 45.776 208.607 43.016 207.551 40.52C206.495 37.976 205.007 35.768 203.087 33.896C201.215 31.976 198.983 30.512 196.391 29.504C193.847 28.448 191.063 27.92 188.039 27.92C185.015 27.92 182.207 28.448 179.615 29.504C177.023 30.512 174.767 31.976 172.847 33.896C170.975 35.768 169.487 37.976 168.383 40.52C167.327 43.016 166.799 45.776 166.799 48.8C166.799 51.776 167.327 54.536 168.383 57.08C169.487 59.624 170.975 61.856 172.847 63.776C174.767 65.648 177.023 67.112 179.615 68.168C182.207 69.176 185.015 69.68 188.039 69.68ZM241.417 74L224.425 23.6H229.897L245.809 71.048H243.073L259.489 23.6H264.385L280.585 71.048H277.993L294.049 23.6H299.161L282.169 74H276.553L261.073 29H262.513L246.961 74H241.417Z" fill="url(#paint4_linear_1107_701)"/>
<path d="M59.656 72.56L58.9084 74.415L58.925 74.4217L58.9417 74.4281L59.656 72.56ZM51.232 67.16L49.8324 68.5887L49.8397 68.5958L49.8469 68.6028L51.232 67.16ZM45.688 59.024L43.841 59.7912L43.846 59.8033L43.8512 59.8152L45.688 59.024ZM45.688 38.576L43.8512 37.7848L43.846 37.7967L43.841 37.8088L45.688 38.576ZM51.304 30.44L52.6891 31.8828V31.8828L51.304 30.44ZM59.728 25.112L60.4515 26.9765L60.4588 26.9737L60.4661 26.9708L59.728 25.112ZM80.896 24.968L80.1875 26.8383L80.1968 26.8418L80.896 24.968ZM89.104 30.44L90.5333 31.8389L91.862 30.4814L90.5747 29.0846L89.104 30.44ZM85.792 33.824L84.3778 35.2382L85.8073 36.6677L87.2213 35.2229L85.792 33.824ZM78.808 29.288L79.4829 27.4053L78.808 29.288ZM61.96 29.504L62.6849 31.368L62.6939 31.3645L62.7028 31.361L61.96 29.504ZM55.12 33.896L56.5162 35.328L56.5166 35.3276L55.12 33.896ZM50.584 40.52L48.7493 39.7238L48.7456 39.7322L48.7421 39.7407L50.584 40.52ZM50.584 57.08L48.7368 57.8468L48.7429 57.8615L48.7493 57.8762L50.584 57.08ZM55.12 63.776L53.7058 65.1902L53.7235 65.2079L53.7416 65.2251L55.12 63.776ZM61.96 68.168L61.2054 70.0202L61.2259 70.0285L61.2466 70.0364L61.96 68.168ZM78.664 68.384L78.0315 66.4866L78.0208 66.4902L78.664 68.384ZM85.792 63.992L87.392 62.792L86.0397 60.989L84.4103 62.546L85.792 63.992ZM88.816 68.024L90.1373 69.5254L91.5257 68.3036L90.416 66.824L88.816 68.024ZM80.392 72.848L81.0159 74.7482L81.0287 74.744L81.0414 74.7396L80.392 72.848ZM83.704 67.376H81.704V69.1385L83.4525 69.3601L83.704 67.376ZM83.704 48.8V46.8H81.704V48.8H83.704ZM88.816 48.8H90.816V46.8H88.816V48.8ZM88.816 68.024L88.5645 70.0081L90.816 70.2935V68.024H88.816ZM70.312 72.432C66.692 72.432 63.3847 71.8445 60.3703 70.6919L58.9417 74.4281C62.4553 75.7715 66.252 76.432 70.312 76.432V72.432ZM60.4036 70.705C57.4143 69.5003 54.8251 67.8369 52.6171 65.7172L49.8469 68.6028C52.4389 71.0911 55.4657 73.0277 58.9084 74.415L60.4036 70.705ZM52.6316 65.7313C50.4713 63.6151 48.7693 61.1216 47.5248 58.2327L43.8512 59.8152C45.2947 63.1664 47.2887 66.0969 49.8324 68.5887L52.6316 65.7313ZM47.535 58.2568C46.3491 55.4019 45.744 52.2576 45.744 48.8H41.744C41.744 52.7344 42.4349 56.4061 43.841 59.7912L47.535 58.2568ZM45.744 48.8C45.744 45.3424 46.3491 42.1981 47.535 39.3432L43.841 37.8088C42.4349 41.1939 41.744 44.8656 41.744 48.8H45.744ZM47.5248 39.3672C48.7655 36.4871 50.4857 33.998 52.6891 31.8828L49.9189 28.9972C47.3223 31.49 45.2985 34.4249 43.8512 37.7848L47.5248 39.3672ZM52.6891 31.8828C54.8915 29.7684 57.4725 28.1326 60.4515 26.9765L59.0045 23.2475C55.5515 24.5874 52.5165 26.5036 49.9189 28.9972L52.6891 31.8828ZM60.4661 26.9708C63.4741 25.7765 66.773 25.168 70.384 25.168V21.168C66.315 21.168 62.5099 21.8555 58.9899 23.2532L60.4661 26.9708ZM70.384 25.168C74.014 25.168 77.274 25.7347 80.1875 26.8383L81.6045 23.0977C78.182 21.8013 74.434 21.168 70.384 21.168V25.168ZM80.1968 26.8418C83.128 27.9355 85.5969 29.5857 87.6333 31.7954L90.5747 29.0846C88.0991 26.3983 85.096 24.4005 81.5952 23.0942L80.1968 26.8418ZM87.6747 29.0411L84.3627 32.4251L87.2213 35.2229L90.5333 31.8389L87.6747 29.0411ZM87.2062 32.4098C84.9076 30.1112 82.333 28.427 79.4829 27.4053L78.1331 31.1707C80.371 31.9729 82.4524 33.3128 84.3778 35.2382L87.2062 32.4098ZM79.4829 27.4053C76.705 26.4095 73.7388 25.92 70.6 25.92V29.92C73.3172 29.92 75.823 30.3425 78.1331 31.1707L79.4829 27.4053ZM70.6 25.92C67.2504 25.92 64.1155 26.4877 61.2172 27.647L62.7028 31.361C65.0845 30.4082 67.7096 29.92 70.6 29.92V25.92ZM61.2351 27.64C58.3954 28.7443 55.8862 30.3544 53.7234 32.4644L56.5166 35.3276C58.2898 33.5976 60.3406 32.2797 62.6849 31.368L61.2351 27.64ZM53.7238 32.464C51.6113 34.5237 49.9532 36.9497 48.7493 39.7238L52.4187 41.3162C53.4228 39.0023 54.7887 37.0123 56.5162 35.328L53.7238 32.464ZM48.7421 39.7407C47.5703 42.5103 47 45.5393 47 48.8H51C51 46.0127 51.4857 43.5217 52.4259 41.2993L48.7421 39.7407ZM47 48.8C47 52.0178 47.5721 55.0407 48.7368 57.8468L52.4312 56.3132C51.4839 54.0313 51 51.5342 51 48.8H47ZM48.7493 57.8762C49.9512 60.6458 51.6042 63.0886 53.7058 65.1902L56.5342 62.3618C54.7958 60.6234 53.4248 58.6022 52.4187 56.2838L48.7493 57.8762ZM53.7416 65.2251C55.8961 67.2745 58.3893 68.8729 61.2054 70.0202L62.7146 66.3158C60.3467 65.3511 58.2799 64.0215 56.4984 62.3269L53.7416 65.2251ZM61.2466 70.0364C64.1335 71.1387 67.2335 71.68 70.528 71.68V67.68C67.6785 67.68 65.0665 67.2133 62.6734 66.2996L61.2466 70.0364ZM70.528 71.68C73.611 71.68 76.5416 71.217 79.3072 70.2778L78.0208 66.4902C75.6984 67.279 73.205 67.68 70.528 67.68V71.68ZM79.2965 70.2814C82.1938 69.3156 84.8205 67.6866 87.1737 65.438L84.4103 62.546C82.4435 64.4254 80.3182 65.7244 78.0315 66.4866L79.2965 70.2814ZM84.192 65.192L87.216 69.224L90.416 66.824L87.392 62.792L84.192 65.192ZM87.4947 66.5226C85.3033 68.451 82.7272 69.9318 79.7426 70.9564L81.0414 74.7396C84.4888 73.5562 87.5287 71.821 90.1373 69.5254L87.4947 66.5226ZM79.7681 70.9478C76.7605 71.9354 73.6116 72.432 70.312 72.432V76.432C74.0204 76.432 77.5915 75.8726 81.0159 74.7482L79.7681 70.9478ZM85.704 67.376V48.8H81.704V67.376H85.704ZM83.704 50.8H88.816V46.8H83.704V50.8ZM86.816 48.8V68.024H90.816V48.8H86.816ZM89.0675 66.0399L83.9555 65.3919L83.4525 69.3601L88.5645 70.0081L89.0675 66.0399ZM108.936 74H106.936V76H108.936V74ZM108.936 23.6V21.6H106.936V23.6H108.936ZM138.816 25.688L137.99 27.5097L138.002 27.5151L138.014 27.5203L138.816 25.688ZM145.872 31.592L144.179 32.6576L144.191 32.676L144.203 32.6941L145.872 31.592ZM145.872 50.096L144.193 49.0082L144.188 49.0161L145.872 50.096ZM138.816 56L139.617 57.8323L139.629 57.8271L139.641 57.8217L138.816 56ZM111.888 58.016L110.452 56.623L107.159 60.016H111.888V58.016ZM114.264 55.568H116.264V50.6358L112.828 54.175L114.264 55.568ZM114.264 74V76H116.264V74H114.264ZM143.352 74L141.72 75.1564L142.318 76H143.352V74ZM130.392 55.712V53.712H126.523L128.76 56.8684L130.392 55.712ZM136.152 55.712L137.78 54.5513L137.182 53.712H136.152V55.712ZM149.184 74V76H153.065L150.812 72.8393L149.184 74ZM114.264 56L112.808 57.372L116.264 61.0366V56H114.264ZM111.888 53.48V51.48H107.253L110.432 54.852L111.888 53.48ZM139.104 50.168L137.82 48.6338L137.813 48.6396L137.807 48.6455L139.104 50.168ZM139.104 31.52L137.807 33.0425L137.813 33.0483L137.82 33.0542L139.104 31.52ZM111.888 28.208L110.432 26.836L107.253 30.208H111.888V28.208ZM114.264 25.688H116.264V20.6514L112.808 24.316L114.264 25.688ZM110.936 74V23.6H106.936V74H110.936ZM108.936 25.6H127.799V21.6H108.936V25.6ZM127.799 25.6C131.86 25.6 135.237 26.2621 137.99 27.5097L139.641 23.8663C136.25 22.3299 132.283 21.6 127.799 21.6V25.6ZM138.014 27.5203C140.755 28.7196 142.781 30.4367 144.179 32.6576L147.564 30.5264C145.698 27.5633 143.02 25.3444 139.617 23.8557L138.014 27.5203ZM144.203 32.6941C145.627 34.8515 146.392 37.5457 146.392 40.88H150.392C150.392 36.9183 149.476 33.4205 147.54 30.4899L144.203 32.6941ZM146.392 40.88C146.392 44.1053 145.633 46.7866 144.193 49.0082L147.55 51.1838C149.47 48.2214 150.392 44.7587 150.392 40.88H146.392ZM144.188 49.0161C142.788 51.1984 140.753 52.9265 137.99 54.1783L139.641 57.8217C143.022 56.2895 145.691 54.0816 147.555 51.1759L144.188 49.0161ZM138.014 54.1677C135.254 55.3752 131.868 56.016 127.799 56.016V60.016C132.275 60.016 136.233 59.3128 139.617 57.8323L138.014 54.1677ZM127.799 56.016H111.888V60.016H127.799V56.016ZM113.323 59.409L115.699 56.9609L112.828 54.175L110.452 56.623L113.323 59.409ZM112.264 55.568V74H116.264V55.568H112.264ZM114.264 72H108.936V76H114.264V72ZM144.983 72.8436L132.023 54.5556L128.76 56.8684L141.72 75.1564L144.983 72.8436ZM130.392 57.712H136.152V53.712H130.392V57.712ZM134.523 56.8727L147.555 75.1607L150.812 72.8393L137.78 54.5513L134.523 56.8727ZM149.184 72H143.352V76H149.184V72ZM115.719 54.628L113.343 52.108L110.432 54.852L112.808 57.372L115.719 54.628ZM111.888 55.48H127.656V51.48H111.888V55.48ZM127.656 55.48C132.949 55.48 137.308 54.3251 140.4 51.6905L137.807 48.6455C135.715 50.4269 132.442 51.48 127.656 51.48V55.48ZM140.387 51.7022C143.555 49.0521 145.063 45.3522 145.063 40.88H141.063C141.063 44.3758 139.932 46.8679 137.82 48.6338L140.387 51.7022ZM145.063 40.88C145.063 36.3686 143.561 32.6408 140.387 29.9858L137.82 33.0542C139.926 34.8152 141.063 37.3274 141.063 40.88H145.063ZM140.4 29.9975C137.308 27.3629 132.949 26.208 127.656 26.208V30.208C132.442 30.208 135.715 31.2611 137.807 33.0425L140.4 29.9975ZM127.656 26.208H111.888V30.208H127.656V26.208ZM113.343 29.58L115.719 27.06L112.808 24.316L110.432 26.836L113.343 29.58ZM112.264 25.688V56H116.264V25.688H112.264ZM177.455 72.56L176.707 74.415L176.724 74.4217L176.74 74.4281L177.455 72.56ZM169.031 67.16L167.617 68.5742L167.631 68.5886L167.646 68.6028L169.031 67.16ZM163.487 59.024L161.64 59.7912L161.647 59.8085L161.654 59.8256L163.487 59.024ZM163.487 38.648L161.65 37.8568L161.647 37.8637L161.644 37.8706L163.487 38.648ZM169.031 30.512L170.43 31.9407L170.431 31.9404L169.031 30.512ZM177.455 25.112L178.178 26.9765L178.19 26.9719L178.202 26.967L177.455 25.112ZM198.551 25.112L197.803 26.967L197.815 26.9719L197.827 26.9765L198.551 25.112ZM206.903 30.44L205.503 31.8687L205.51 31.8758L205.518 31.8828L206.903 30.44ZM212.447 38.576L210.6 39.3432L210.605 39.3553L210.61 39.3672L212.447 38.576ZM212.447 59.024L210.61 58.2328L210.605 58.2447L210.6 58.2568L212.447 59.024ZM206.903 67.16L205.518 65.7172L205.51 65.7242L205.503 65.7313L206.903 67.16ZM198.551 72.56L199.274 74.4245L199.286 74.4199L199.298 74.415L198.551 72.56ZM196.391 68.168L197.127 70.0274L197.136 70.0238L197.145 70.0202L196.391 68.168ZM203.087 63.776L201.673 62.3618H201.673L203.087 63.776ZM207.551 57.152L209.393 57.9313L209.398 57.9188L207.551 57.152ZM207.551 40.52L205.704 41.2868L205.709 41.2993L207.551 40.52ZM203.087 33.896L201.655 35.2922L201.672 35.3103L201.691 35.328L203.087 33.896ZM196.391 29.504L195.624 31.3512L195.645 31.3598L195.666 31.368L196.391 29.504ZM179.615 29.504L180.34 31.368L180.355 31.3622L180.369 31.3562L179.615 29.504ZM172.847 33.896L171.433 32.4818V32.4818L172.847 33.896ZM168.383 40.52L166.548 39.7238L166.544 39.7322L166.541 39.7407L168.383 40.52ZM168.383 57.08L166.536 57.8468L166.542 57.8615L166.548 57.8762L168.383 57.08ZM172.847 63.776L171.415 65.1722L171.432 65.1903L171.451 65.208L172.847 63.776ZM179.615 68.168L178.86 70.0202L178.875 70.0262L178.89 70.032L179.615 68.168ZM188.039 72.432C184.47 72.432 181.186 71.8456 178.169 70.6919L176.74 74.4281C180.251 75.7705 184.023 76.432 188.039 76.432V72.432ZM178.202 70.705C175.213 69.5003 172.624 67.8369 170.416 65.7172L167.646 68.6028C170.238 71.0911 173.264 73.0277 176.707 74.415L178.202 70.705ZM170.445 65.7458C168.271 63.5716 166.564 61.0678 165.319 58.2224L161.654 59.8256C163.098 63.1242 165.087 66.0444 167.617 68.5742L170.445 65.7458ZM165.334 58.2568C164.148 55.4019 163.543 52.2576 163.543 48.8H159.543C159.543 52.7344 160.234 56.4061 161.64 59.7912L165.334 58.2568ZM163.543 48.8C163.543 45.342 164.148 42.2259 165.329 39.4254L161.644 37.8706C160.233 41.2141 159.543 44.866 159.543 48.8H163.543ZM165.324 39.4392C166.568 36.5504 168.27 34.0569 170.43 31.9407L167.631 29.0833C165.087 31.5751 163.093 34.5056 161.65 37.8568L165.324 39.4392ZM170.431 31.9404C172.632 29.7832 175.208 28.1292 178.178 26.9765L176.731 23.2475C173.269 24.5908 170.23 26.5368 167.631 29.0836L170.431 31.9404ZM178.202 26.967C181.156 25.7766 184.427 25.168 188.039 25.168V21.168C183.97 21.168 180.185 21.8554 176.707 23.257L178.202 26.967ZM188.039 25.168C191.599 25.168 194.846 25.7754 197.803 26.967L199.298 23.257C195.823 21.8566 192.063 21.168 188.039 21.168V25.168ZM197.827 26.9765C200.803 28.1313 203.354 29.7633 205.503 31.8687L208.302 29.0113C205.748 26.5087 202.731 24.5887 199.274 23.2475L197.827 26.9765ZM205.518 31.8828C207.716 33.9928 209.408 36.4738 210.6 39.3432L214.294 37.8088C212.894 34.4382 210.89 31.4952 208.288 28.9972L205.518 31.8828ZM210.61 39.3672C211.837 42.2161 212.463 45.3519 212.463 48.8H216.463C216.463 44.856 215.744 41.1759 214.284 37.7848L210.61 39.3672ZM212.463 48.8C212.463 52.2481 211.837 55.3839 210.61 58.2328L214.284 59.8152C215.744 56.4241 216.463 52.7439 216.463 48.8H212.463ZM210.6 58.2568C209.408 61.1262 207.716 63.6072 205.518 65.7172L208.288 68.6028C210.89 66.1048 212.894 63.1618 214.294 59.7912L210.6 58.2568ZM205.503 65.7313C203.348 67.8422 200.789 69.5017 197.803 70.705L199.298 74.415C202.744 73.0263 205.753 71.0858 208.302 68.5887L205.503 65.7313ZM197.827 70.6955C194.864 71.8455 191.608 72.432 188.039 72.432V76.432C192.054 76.432 195.806 75.7705 199.274 74.4245L197.827 70.6955ZM188.039 71.68C191.288 71.68 194.326 71.1376 197.127 70.0274L195.654 66.3086C193.368 67.2144 190.837 67.68 188.039 67.68V71.68ZM197.145 70.0202C199.97 68.8695 202.43 67.2614 204.501 65.1902L201.673 62.3618C200 64.0346 197.996 65.3545 195.636 66.3158L197.145 70.0202ZM204.501 65.1902C206.603 63.0884 208.236 60.665 209.393 57.9313L205.709 56.3727C204.753 58.6311 203.411 60.6236 201.673 62.3618L204.501 65.1902ZM209.398 57.9188C210.564 55.1089 211.135 52.0613 211.135 48.8H207.135C207.135 51.5867 206.649 54.1071 205.704 56.3852L209.398 57.9188ZM211.135 48.8C211.135 45.5393 210.564 42.5103 209.393 39.7407L205.709 41.2993C206.649 43.5217 207.135 46.0127 207.135 48.8H211.135ZM209.398 39.7532C208.241 36.9662 206.602 34.5301 204.483 32.464L201.691 35.328C203.411 37.0059 204.748 38.9858 205.704 41.2868L209.398 39.7532ZM204.519 32.4998C202.44 30.3675 199.964 28.7477 197.116 27.64L195.666 31.368C198.002 32.2763 199.99 33.5845 201.655 35.2922L204.519 32.4998ZM197.158 27.6568C194.348 26.4905 191.3 25.92 188.039 25.92V29.92C190.825 29.92 193.346 30.4055 195.624 31.3512L197.158 27.6568ZM188.039 25.92C184.777 25.92 181.71 26.4906 178.86 27.6518L180.369 31.3562C182.703 30.4054 185.253 29.92 188.039 29.92V25.92ZM178.89 27.64C176.046 28.746 173.553 30.3609 171.433 32.4818L174.261 35.3102C175.98 33.5911 178 32.278 180.34 31.368L178.89 27.64ZM171.433 32.4818C169.374 34.5399 167.747 36.9603 166.548 39.7238L170.217 41.3162C171.226 38.9917 172.575 36.9961 174.261 35.3102L171.433 32.4818ZM166.541 39.7407C165.369 42.5103 164.799 45.5393 164.799 48.8H168.799C168.799 46.0127 169.284 43.5217 170.225 41.2993L166.541 39.7407ZM164.799 48.8C164.799 52.0178 165.371 55.0407 166.536 57.8468L170.23 56.3132C169.283 54.0313 168.799 51.5342 168.799 48.8H164.799ZM166.548 57.8762C167.745 60.6352 169.367 63.0724 171.415 65.1722L174.279 62.3798C172.582 60.6396 171.228 58.6128 170.217 56.2838L166.548 57.8762ZM171.451 65.208C173.563 67.268 176.04 68.8712 178.86 70.0202L180.369 66.3158C178.006 65.3528 175.97 64.028 174.243 62.344L171.451 65.208ZM178.89 70.032C181.732 71.1374 184.789 71.68 188.039 71.68V67.68C185.241 67.68 182.681 67.2146 180.34 66.304L178.89 70.032ZM241.417 74L239.521 74.6389L239.98 76H241.417V74ZM224.425 23.6V21.6H221.64L222.529 24.2389L224.425 23.6ZM229.897 23.6L231.793 22.9641L231.335 21.6H229.897V23.6ZM245.809 71.048V73.048H248.589L247.705 70.4121L245.809 71.048ZM243.073 71.048L241.183 70.3941L240.264 73.048H243.073V71.048ZM259.489 23.6V21.6H258.064L257.599 22.9461L259.489 23.6ZM264.385 23.6L266.277 22.9538L265.815 21.6H264.385V23.6ZM280.585 71.048V73.048H283.381L282.477 70.4018L280.585 71.048ZM277.993 71.048L276.098 70.4069L275.204 73.048H277.993V71.048ZM294.049 23.6V21.6H292.614L292.154 22.9589L294.049 23.6ZM299.161 23.6L301.056 24.2389L301.946 21.6H299.161V23.6ZM282.169 74V76H283.605L284.064 74.6389L282.169 74ZM276.553 74L274.661 74.6506L275.126 76H276.553V74ZM261.073 29V27H258.27L259.181 29.6506L261.073 29ZM262.513 29L264.403 29.6533L265.32 27H262.513V29ZM246.961 74V76H248.385L248.851 74.6533L246.961 74ZM243.312 73.3611L226.32 22.961L222.529 24.2389L239.521 74.6389L243.312 73.3611ZM224.425 25.6H229.897V21.6H224.425V25.6ZM228 24.2359L243.912 71.6839L247.705 70.4121L231.793 22.9641L228 24.2359ZM245.809 69.048H243.073V73.048H245.809V69.048ZM244.963 71.7019L261.379 24.2539L257.599 22.9461L241.183 70.3941L244.963 71.7019ZM259.489 25.6H264.385V21.6H259.489V25.6ZM262.492 24.2462L278.692 71.6942L282.477 70.4018L266.277 22.9538L262.492 24.2462ZM280.585 69.048H277.993V73.048H280.585V69.048ZM279.887 71.6891L295.943 24.2411L292.154 22.9589L276.098 70.4069L279.887 71.6891ZM294.049 25.6H299.161V21.6H294.049V25.6ZM297.265 22.961L280.273 73.3611L284.064 74.6389L301.056 24.2389L297.265 22.961ZM282.169 72H276.553V76H282.169V72ZM278.444 73.3494L262.964 28.3494L259.181 29.6506L274.661 74.6506L278.444 73.3494ZM261.073 31H262.513V27H261.073V31ZM260.622 28.3467L245.07 73.3467L248.851 74.6533L264.403 29.6533L260.622 28.3467ZM246.961 72H241.417V76H246.961V72Z" fill="url(#paint5_linear_1107_701)"/>
</g>
<defs>
<filter id="filter0_d_1107_701" x="0.0720215" y="76.168" width="334.708" height="97.2639" filterUnits="userSpaceOnUse" color-interpolation-filters="sRGB">
<feFlood flood-opacity="0" result="BackgroundImageFix"/>
<feColorMatrix in="SourceAlpha" type="matrix" values="0 0 0 0 0 0 0 0 0 0 0 0 0 0 0 0 0 0 127 0" result="hardAlpha"/>
<feOffset/>
<feGaussianBlur stdDeviation="11.5"/>
<feComposite in2="hardAlpha" operator="out"/>
<feColorMatrix type="matrix" values="0 0 0 0 0.894118 0 0 0 0 0.756863 0 0 0 0 0.447059 0 0 0 0.23 0"/>
<feBlend mode="normal" in2="BackgroundImageFix" result="effect1_dropShadow_1107_701"/>
<feBlend mode="normal" in="SourceGraphic" in2="effect1_dropShadow_1107_701" result="shape"/>
</filter>
<filter id="filter1_d_1107_701" x="19.144" y="151.168" width="296.274" height="97.2639" filterUnits="userSpaceOnUse" color-interpolation-filters="sRGB">
<feFlood flood-opacity="0" result="BackgroundImageFix"/>
<feColorMatrix in="SourceAlpha" type="matrix" values="0 0 0 0 0 0 0 0 0 0 0 0 0 0 0 0 0 0 127 0" result="hardAlpha"/>
<feOffset/>
<feGaussianBlur stdDeviation="11.5"/>
<feComposite in2="hardAlpha" operator="out"/>
<feColorMatrix type="matrix" values="0 0 0 0 0.894118 0 0 0 0 0.756863 0 0 0 0 0.447059 0 0 0 0.23 0"/>
<feBlend mode="normal" in2="BackgroundImageFix" result="effect1_dropShadow_1107_701"/>
<feBlend mode="normal" in="SourceGraphic" in2="effect1_dropShadow_1107_701" result="shape"/>
</filter>
<filter id="filter2_d_1107_701" x="20.744" y="0.167969" width="301.417" height="97.2639" filterUnits="userSpaceOnUse" color-interpolation-filters="sRGB">
<feFlood flood-opacity="0" result="BackgroundImageFix"/>
<feColorMatrix in="SourceAlpha" type="matrix" values="0 0 0 0 0 0 0 0 0 0 0 0 0 0 0 0 0 0 127 0" result="hardAlpha"/>
<feOffset/>
<feGaussianBlur stdDeviation="11.5"/>
<feComposite in2="hardAlpha" operator="out"/>
<feColorMatrix type="matrix" values="0 0 0 0 0.894118 0 0 0 0 0.756863 0 0 0 0 0.447059 0 0 0 0.23 0"/>
<feBlend mode="normal" in2="BackgroundImageFix" result="effect1_dropShadow_1107_701"/>
<feBlend mode="normal" in="SourceGraphic" in2="effect1_dropShadow_1107_701" result="shape"/>
</filter>
<linearGradient id="paint0_linear_1107_701" x1="171" y1="95.5" x2="171" y2="146.8" gradientUnits="userSpaceOnUse">
<stop stop-color="#FAFFF3"/>
<stop offset="0.270481" stop-color="#E8C473"/>
<stop offset="0.435804" stop-color="#D9B568"/>
<stop offset="0.476216" stop-color="#C49013"/>
<stop offset="0.626842" stop-color="#E6D76D"/>
<stop offset="0.814873" stop-color="white"/>
<stop offset="1" stop-color="#DBB554"/>
</linearGradient>
<linearGradient id="paint1_linear_1107_701" x1="160.95" y1="92.5" x2="163.168" y2="146.736" gradientUnits="userSpaceOnUse">
<stop stop-color="#755F22"/>
<stop offset="0.519449" stop-color="white"/>
<stop offset="1" stop-color="#77632A"/>
</linearGradient>
<linearGradient id="paint2_linear_1107_701" x1="171.5" y1="170.5" x2="171.5" y2="221.8" gradientUnits="userSpaceOnUse">
<stop stop-color="#FAFFF3"/>
<stop offset="0.270481" stop-color="#E8C473"/>
<stop offset="0.435804" stop-color="#D9B568"/>
<stop offset="0.476216" stop-color="#C49013"/>
<stop offset="0.626842" stop-color="#E6D76D"/>
<stop offset="0.814873" stop-color="white"/>
<stop offset="1" stop-color="#DBB554"/>
</linearGradient>
<linearGradient id="paint3_linear_1107_701" x1="162.706" y1="167.5" x2="165.24" y2="221.708" gradientUnits="userSpaceOnUse">
<stop stop-color="#755F22"/>
<stop offset="0.519449" stop-color="white"/>
<stop offset="1" stop-color="#77632A"/>
</linearGradient>
<linearGradient id="paint4_linear_1107_701" x1="171" y1="19.5" x2="171" y2="70.8" gradientUnits="userSpaceOnUse">
<stop stop-color="#FAFFF3"/>
<stop offset="0.270481" stop-color="#E8C473"/>
<stop offset="0.435804" stop-color="#D9B568"/>
<stop offset="0.476216" stop-color="#C49013"/>
<stop offset="0.626842" stop-color="#E6D76D"/>
<stop offset="0.814873" stop-color="white"/>
<stop offset="1" stop-color="#DBB554"/>
</linearGradient>
<linearGradient id="paint5_linear_1107_701" x1="162.104" y1="16.5" x2="164.609" y2="70.7108" gradientUnits="userSpaceOnUse">
<stop stop-color="#755F22"/>
<stop offset="0.519449" stop-color="white"/>
<stop offset="1" stop-color="#77632A"/>
</linearGradient>
</defs>
</svg>
