<svg width="205" height="37" viewBox="0 0 205 37" fill="none" xmlns="http://www.w3.org/2000/svg">
<g filter="url(#filter0_d_1107_31)">
<path d="M5.096 31V5.8H14.42C15.908 5.8 17.24 6.088 18.416 6.664C19.616 7.216 20.564 8.02 21.26 9.076C21.956 10.132 22.304 11.416 22.304 12.928V13.36C22.304 14.872 21.944 16.168 21.224 17.248C20.528 18.304 19.58 19.108 18.38 19.66C17.204 20.212 15.884 20.488 14.42 20.488H7.4L7.4 31H5.096ZM7.4 18.4H14.168C15.968 18.4 17.384 17.956 18.416 17.068C19.472 16.18 20 14.932 20 13.324V12.964C20 11.332 19.484 10.084 18.452 9.22C17.444 8.332 16.016 7.888 14.168 7.888H7.4V18.4ZM21.7997 31L30.0437 5.8L34.1477 5.8L42.3917 31H39.9797L37.8197 24.304H26.3717L24.2117 31H21.7997ZM27.0197 22.216H37.1717L32.3117 7.168H31.8797L27.0197 22.216ZM45.7732 31V5.8H55.6372C57.1972 5.8 58.5652 6.064 59.7412 6.592C60.9412 7.12 61.8772 7.888 62.5492 8.896C63.2452 9.88 63.5932 11.08 63.5932 12.496V12.856C63.5932 14.56 63.1852 15.904 62.3692 16.888C61.5532 17.848 60.5932 18.484 59.4892 18.796V19.228C60.3292 19.252 61.0372 19.516 61.6132 20.02C62.1892 20.524 62.4772 21.328 62.4772 22.432V31H60.1732V22.684C60.1732 21.916 59.9572 21.328 59.5252 20.92C59.1172 20.512 58.4932 20.308 57.6532 20.308H48.0772V31H45.7732ZM48.0772 18.22H55.4212C57.2932 18.22 58.7332 17.788 59.7412 16.924C60.7732 16.036 61.2892 14.776 61.2892 13.144V12.964C61.2892 11.332 60.7852 10.084 59.7772 9.22C58.7932 8.332 57.3412 7.888 55.4212 7.888H48.0772V18.22ZM73.7486 31V7.888L65.3246 7.888V5.8H84.4766V7.888H76.0526V31H73.7486ZM94.4806 31V21.028L85.3366 5.8H88.0726L95.4166 18.4H95.8486L103.193 5.8H105.929L96.7846 21.028V31H94.4806Z" fill="white"/>
<path d="M115.949 31V24.952L128.405 10.624V10.048H116.309V5.8H133.373V11.848L120.917 26.176V26.752L133.445 26.752V31H115.949ZM146.062 31.504C142.894 31.504 140.374 30.64 138.502 28.912C136.63 27.16 135.694 24.664 135.694 21.424V15.376C135.694 12.136 136.63 9.652 138.502 7.924C140.374 6.172 142.894 5.296 146.062 5.296C149.23 5.296 151.75 6.172 153.622 7.924C155.494 9.652 156.43 12.136 156.43 15.376V21.424C156.43 24.664 155.494 27.16 153.622 28.912C151.75 30.64 149.23 31.504 146.062 31.504ZM146.062 27.256C147.838 27.256 149.218 26.74 150.202 25.708C151.186 24.676 151.678 23.296 151.678 21.568V15.232C151.678 13.504 151.186 12.124 150.202 11.092C149.218 10.06 147.838 9.544 146.062 9.544C144.31 9.544 142.93 10.06 141.922 11.092C140.938 12.124 140.446 13.504 140.446 15.232V21.568C140.446 23.296 140.938 24.676 141.922 25.708C142.93 26.74 144.31 27.256 146.062 27.256ZM159.878 31V5.8L168.914 5.8L173.918 27.76H174.566V5.8H179.246V31H170.21L165.206 9.04H164.558V31H159.878ZM183.275 31V5.8H199.475V10.12L188.027 10.12V16.132H198.467V20.452H188.027V26.68H199.691V31H183.275Z" fill="#ED1F98"/>
</g>
<defs>
<filter id="filter0_d_1107_31" x="0.095993" y="0.296005" width="204.595" height="36.208" filterUnits="userSpaceOnUse" color-interpolation-filters="sRGB">
<feFlood flood-opacity="0" result="BackgroundImageFix"/>
<feColorMatrix in="SourceAlpha" type="matrix" values="0 0 0 0 0 0 0 0 0 0 0 0 0 0 0 0 0 0 127 0" result="hardAlpha"/>
<feOffset/>
<feGaussianBlur stdDeviation="2.5"/>
<feComposite in2="hardAlpha" operator="out"/>
<feColorMatrix type="matrix" values="0 0 0 0 0.85098 0 0 0 0 0.00784314 0 0 0 0 0.501961 0 0 0 1 0"/>
<feBlend mode="normal" in2="BackgroundImageFix" result="effect1_dropShadow_1107_31"/>
<feBlend mode="normal" in="SourceGraphic" in2="effect1_dropShadow_1107_31" result="shape"/>
</filter>
</defs>
</svg>
