<svg width="181" height="37" viewBox="0 0 181 37" fill="none" xmlns="http://www.w3.org/2000/svg">
<g filter="url(#filter0_d_1107_30)">
<path d="M5.096 31V5.8H14.42C15.908 5.8 17.24 6.088 18.416 6.664C19.616 7.216 20.564 8.02 21.26 9.076C21.956 10.132 22.304 11.416 22.304 12.928V13.36C22.304 14.872 21.944 16.168 21.224 17.248C20.528 18.304 19.58 19.108 18.38 19.66C17.204 20.212 15.884 20.488 14.42 20.488H7.4L7.4 31H5.096ZM7.4 18.4H14.168C15.968 18.4 17.384 17.956 18.416 17.068C19.472 16.18 20 14.932 20 13.324V12.964C20 11.332 19.484 10.084 18.452 9.22C17.444 8.332 16.016 7.888 14.168 7.888H7.4V18.4ZM25.9619 31V5.8H28.2659V28.912H41.5139V31H25.9619ZM42.8414 31L51.0854 5.8H55.1894L63.4334 31H61.0214L58.8614 24.304H47.4134L45.2534 31H42.8414ZM48.0614 22.216H58.2134L53.3534 7.168H52.9214L48.0614 22.216ZM70.6264 31V21.028L61.4824 5.8H64.2184L71.5624 18.4H71.9944L79.3384 5.8H82.0744L72.9304 21.028V31H70.6264Z" fill="white"/>
<path d="M92.0951 31V24.952L104.551 10.624V10.048H92.4551V5.8L109.519 5.8V11.848L97.0631 26.176V26.752H109.591V31H92.0951ZM122.207 31.504C119.039 31.504 116.519 30.64 114.647 28.912C112.775 27.16 111.839 24.664 111.839 21.424V15.376C111.839 12.136 112.775 9.652 114.647 7.924C116.519 6.172 119.039 5.296 122.207 5.296C125.375 5.296 127.895 6.172 129.767 7.924C131.639 9.652 132.575 12.136 132.575 15.376V21.424C132.575 24.664 131.639 27.16 129.767 28.912C127.895 30.64 125.375 31.504 122.207 31.504ZM122.207 27.256C123.983 27.256 125.363 26.74 126.347 25.708C127.331 24.676 127.823 23.296 127.823 21.568V15.232C127.823 13.504 127.331 12.124 126.347 11.092C125.363 10.06 123.983 9.544 122.207 9.544C120.455 9.544 119.075 10.06 118.067 11.092C117.083 12.124 116.591 13.504 116.591 15.232V21.568C116.591 23.296 117.083 24.676 118.067 25.708C119.075 26.74 120.455 27.256 122.207 27.256ZM136.024 31V5.8H145.06L150.064 27.76H150.712V5.8H155.392V31H146.356L141.352 9.04H140.704V31H136.024ZM159.421 31V5.8L175.621 5.8V10.12H164.173V16.132H174.613V20.452H164.173V26.68H175.837V31H159.421Z" fill="#ED1F98"/>
</g>
<defs>
<filter id="filter0_d_1107_30" x="0.095993" y="0.296021" width="180.741" height="36.208" filterUnits="userSpaceOnUse" color-interpolation-filters="sRGB">
<feFlood flood-opacity="0" result="BackgroundImageFix"/>
<feColorMatrix in="SourceAlpha" type="matrix" values="0 0 0 0 0 0 0 0 0 0 0 0 0 0 0 0 0 0 127 0" result="hardAlpha"/>
<feOffset/>
<feGaussianBlur stdDeviation="2.5"/>
<feComposite in2="hardAlpha" operator="out"/>
<feColorMatrix type="matrix" values="0 0 0 0 0.85098 0 0 0 0 0.00784314 0 0 0 0 0.501961 0 0 0 1 0"/>
<feBlend mode="normal" in2="BackgroundImageFix" result="effect1_dropShadow_1107_30"/>
<feBlend mode="normal" in="SourceGraphic" in2="effect1_dropShadow_1107_30" result="shape"/>
</filter>
</defs>
</svg>
