<svg width="328" height="43" viewBox="0 0 328 43" fill="none" xmlns="http://www.w3.org/2000/svg">
<g filter="url(#filter0_d_1107_29)">
<path d="M9.868 31L5.44 5.8H7.78L11.812 29.632H12.244L17.464 5.8H21.712L26.932 29.632H27.364L31.396 5.8H33.736L29.308 31H25.024L19.804 7.168H19.372L14.152 31H9.868ZM37.5596 31V5.8H52.7876V7.888H39.8636V17.32H51.7796V19.408H39.8636V28.912H52.9316V31H37.5596ZM57.2654 31V5.8H59.5694V28.912H72.8174V31H57.2654ZM84.5281 31.504C81.5761 31.504 79.2121 30.64 77.4361 28.912C75.6841 27.16 74.8081 24.604 74.8081 21.244V15.556C74.8081 12.196 75.6841 9.652 77.4361 7.924C79.2121 6.172 81.5761 5.296 84.5281 5.296C87.4561 5.296 89.6881 6.124 91.2241 7.78C92.7841 9.412 93.5641 11.644 93.5641 14.476V14.656H91.2601V14.404C91.2601 12.34 90.7081 10.66 89.6041 9.364C88.5241 8.044 86.8321 7.384 84.5281 7.384C82.2001 7.384 80.3761 8.092 79.0561 9.508C77.7601 10.924 77.1121 12.916 77.1121 15.484V21.316C77.1121 23.884 77.7601 25.876 79.0561 27.292C80.3761 28.708 82.2001 29.416 84.5281 29.416C86.8321 29.416 88.5241 28.768 89.6041 27.472C90.7081 26.152 91.2601 24.46 91.2601 22.396V21.856H93.5641V22.324C93.5641 25.156 92.7841 27.4 91.2241 29.056C89.6881 30.688 87.4561 31.504 84.5281 31.504ZM106.835 31.504C103.883 31.504 101.531 30.64 99.7786 28.912C98.0266 27.16 97.1506 24.604 97.1506 21.244V15.556C97.1506 12.196 98.0266 9.652 99.7786 7.924C101.531 6.172 103.883 5.296 106.835 5.296C109.787 5.296 112.139 6.172 113.891 7.924C115.643 9.652 116.519 12.196 116.519 15.556V21.244C116.519 24.604 115.643 27.16 113.891 28.912C112.139 30.64 109.787 31.504 106.835 31.504ZM106.835 29.416C109.187 29.416 110.999 28.708 112.271 27.292C113.567 25.876 114.215 23.884 114.215 21.316V15.484C114.215 12.916 113.567 10.924 112.271 9.508C110.999 8.092 109.187 7.384 106.835 7.384C104.507 7.384 102.695 8.092 101.399 9.508C100.103 10.924 99.4546 12.916 99.4546 15.484V21.316C99.4546 23.884 100.103 25.876 101.399 27.292C102.695 28.708 104.507 29.416 106.835 29.416ZM121.199 31V5.8H125.699L133.331 29.632H133.763L141.395 5.8H145.895V31H143.663V7.168H143.231L135.599 31H131.495L123.863 7.168H123.431V31H121.199ZM151.381 31V5.8L166.609 5.8V7.888H153.685V17.32H165.601V19.408H153.685V28.912H166.753V31H151.381ZM185.106 31V7.888H176.682V5.8H195.834V7.888H187.41V31H185.106ZM206.946 31.504C203.994 31.504 201.642 30.64 199.89 28.912C198.138 27.16 197.262 24.604 197.262 21.244V15.556C197.262 12.196 198.138 9.652 199.89 7.924C201.642 6.172 203.994 5.296 206.946 5.296C209.898 5.296 212.25 6.172 214.002 7.924C215.754 9.652 216.63 12.196 216.63 15.556V21.244C216.63 24.604 215.754 27.16 214.002 28.912C212.25 30.64 209.898 31.504 206.946 31.504ZM206.946 29.416C209.298 29.416 211.11 28.708 212.382 27.292C213.678 25.876 214.326 23.884 214.326 21.316V15.484C214.326 12.916 213.678 10.924 212.382 9.508C211.11 8.092 209.298 7.384 206.946 7.384C204.618 7.384 202.806 8.092 201.51 9.508C200.214 10.924 199.566 12.916 199.566 15.484V21.316C199.566 23.884 200.214 25.876 201.51 27.292C202.806 28.708 204.618 29.416 206.946 29.416Z" fill="white"/>
<path d="M238.908 31.504C235.74 31.504 233.22 30.64 231.348 28.912C229.476 27.16 228.54 24.664 228.54 21.424V15.376C228.54 12.136 229.476 9.652 231.348 7.924C233.22 6.172 235.74 5.296 238.908 5.296C242.076 5.296 244.596 6.172 246.468 7.924C248.34 9.652 249.276 12.136 249.276 15.376V21.424C249.276 24.664 248.34 27.16 246.468 28.912C244.596 30.64 242.076 31.504 238.908 31.504ZM238.908 27.256C240.684 27.256 242.064 26.74 243.048 25.708C244.032 24.676 244.524 23.296 244.524 21.568V15.232C244.524 13.504 244.032 12.124 243.048 11.092C242.064 10.06 240.684 9.544 238.908 9.544C237.156 9.544 235.776 10.06 234.768 11.092C233.784 12.124 233.292 13.504 233.292 15.232V21.568C233.292 23.296 233.784 24.676 234.768 25.708C235.776 26.74 237.156 27.256 238.908 27.256ZM240.564 37.48C239.388 37.48 238.428 37.108 237.684 36.364C236.964 35.644 236.604 34.672 236.604 33.448V31H241.212V32.728C241.212 33.448 241.548 33.808 242.22 33.808H244.344V37.48H240.564ZM252.724 31V5.8H263.668C265.252 5.8 266.632 6.076 267.808 6.628C268.984 7.18 269.896 7.96 270.544 8.968C271.192 9.976 271.516 11.164 271.516 12.532V12.964C271.516 14.476 271.156 15.7 270.436 16.636C269.716 17.572 268.828 18.256 267.772 18.688V19.336C268.732 19.384 269.476 19.72 270.004 20.344C270.532 20.944 270.796 21.748 270.796 22.756V31H266.044V23.44C266.044 22.864 265.888 22.396 265.576 22.036C265.288 21.676 264.796 21.496 264.1 21.496H257.476V31H252.724ZM257.476 17.176H263.164C264.292 17.176 265.168 16.876 265.792 16.276C266.44 15.652 266.764 14.836 266.764 13.828V13.468C266.764 12.46 266.452 11.656 265.828 11.056C265.204 10.432 264.316 10.12 263.164 10.12H257.476V17.176ZM274.75 31V5.8H290.95V10.12H279.502V16.132H289.942V20.452H279.502V26.68H291.166V31H274.75ZM295.98 31L292.668 5.8H297.384L299.832 27.688H300.48L303.648 5.8H311.856L315.024 27.688H315.672L318.12 5.8H322.836L319.524 31H311.316L308.076 8.608H307.428L304.188 31H295.98Z" fill="#ED1F98"/>
</g>
<defs>
<filter id="filter0_d_1107_29" x="0.440002" y="0.295898" width="327.396" height="42.1841" filterUnits="userSpaceOnUse" color-interpolation-filters="sRGB">
<feFlood flood-opacity="0" result="BackgroundImageFix"/>
<feColorMatrix in="SourceAlpha" type="matrix" values="0 0 0 0 0 0 0 0 0 0 0 0 0 0 0 0 0 0 127 0" result="hardAlpha"/>
<feOffset/>
<feGaussianBlur stdDeviation="2.5"/>
<feComposite in2="hardAlpha" operator="out"/>
<feColorMatrix type="matrix" values="0 0 0 0 0.85098 0 0 0 0 0.00784314 0 0 0 0 0.501961 0 0 0 1 0"/>
<feBlend mode="normal" in2="BackgroundImageFix" result="effect1_dropShadow_1107_29"/>
<feBlend mode="normal" in="SourceGraphic" in2="effect1_dropShadow_1107_29" result="shape"/>
</filter>
</defs>
</svg>
